<?xml version="1.0" encoding="UTF-8"?>
<svg version="1.1" xmlns="http://www.w3.org/2000/svg" width="128" height="128">
<path d="M0 0 C2.19843711 4.53427655 2 6.43108581 2 12 C-28.03 17.28 -58.06 22.56 -89 28 C-58.97 28.33 -28.94 28.66 2 29 C2 30.98 2 32.96 2 35 C4.97 35 7.94 35 11 35 C11.55439491 56.45713641 10.43690611 78.13924677 5 99 C6.1446875 99.185625 6.1446875 99.185625 7.3125 99.375 C10 100 10 100 13 102 C13.1875 105.125 13.1875 105.125 13 108 C6.87836916 111.22269315 1.69651493 111.42854725 -5.1484375 111.38818359 C-6.25012268 111.39344055 -7.35180786 111.39869751 -8.48687744 111.40411377 C-12.11639727 111.41728137 -15.74547596 111.40858679 -19.375 111.3984375 C-21.90413497 111.40045916 -24.43326937 111.40337136 -26.96240234 111.40713501 C-32.25820006 111.41155399 -37.55384072 111.40542864 -42.84960938 111.39111328 C-48.95895915 111.37478865 -55.0680085 111.38007791 -61.177351 111.3965925 C-67.07148598 111.41188333 -72.96552821 111.4102185 -78.85968018 111.4014473 C-81.36029096 111.39944844 -83.86090943 111.40189349 -86.36151123 111.40888596 C-89.85840052 111.4165188 -93.35471587 111.40486965 -96.8515625 111.38818359 C-97.88138245 111.39425629 -98.91120239 111.40032898 -99.972229 111.40658569 C-105.76071236 111.35550977 -109.85801639 110.70696417 -115 108 C-115.3125 105.1875 -115.3125 105.1875 -115 102 C-112.14925356 99.68858396 -110.6860549 99 -107 99 C-107.11069824 98.39341553 -107.22139648 97.78683105 -107.33544922 97.16186523 C-110.95340736 77.08991534 -114.23292068 56.47221785 -113 36 C-112 35 -112 35 -108.4375 34.9375 C-107.303125 34.958125 -106.16875 34.97875 -105 35 C-105.2475 33.2984375 -105.2475 33.2984375 -105.5 31.5625 C-105.94994219 28.46914746 -106.02351071 25.45583489 -106.01367188 22.33569336 C-106.011698 21.52410263 -106.00972412 20.7125119 -106.00769043 19.87632751 C-106.00515259 19.25713943 -106.00261475 18.63795135 -106 18 C-92.94756769 15.34046716 -79.8781505 12.84705451 -66.7578125 10.546875 C-65.00714107 10.23876654 -63.25648008 9.93059874 -61.50582886 9.62237549 C-57.88455434 8.98547514 -54.2629444 8.35052393 -50.64111328 7.71679688 C-46.00937092 6.90601063 -41.37888805 6.08825013 -36.74865913 5.26887131 C-33.15473609 4.63400408 -29.56001522 4.00375073 -25.96505356 3.37479401 C-24.25599126 3.0750285 -22.54721707 2.77361533 -20.83874893 2.47048187 C-18.46249167 2.04936798 -16.08518881 1.63473567 -13.70751953 1.22167969 C-12.66491974 1.03474045 -12.66491974 1.03474045 -11.60125732 0.84402466 C-7.68862946 0.17230323 -3.96801534 -0.12031138 0 0 Z " fill="#107AFE" transform="translate(115,1)"/>
<path d="M0 0 C0.210026 7.83652569 -0.42259154 15.46808107 -1.3125 23.25 C-1.44567627 24.43698486 -1.57885254 25.62396973 -1.71606445 26.84692383 C-2.67343228 35.03250291 -3.91897719 43.01536638 -6 51 C-4.8553125 51.185625 -4.8553125 51.185625 -3.6875 51.375 C-1 52 -1 52 2 54 C2.1875 57.125 2.1875 57.125 2 60 C-4.12163084 63.22269315 -9.30348507 63.42854725 -16.1484375 63.38818359 C-17.25012268 63.39344055 -18.35180786 63.39869751 -19.48687744 63.40411377 C-23.11639727 63.41728137 -26.74547596 63.40858679 -30.375 63.3984375 C-32.90413497 63.40045916 -35.43326937 63.40337136 -37.96240234 63.40713501 C-43.25820006 63.41155399 -48.55384072 63.40542864 -53.84960938 63.39111328 C-59.95895915 63.37478865 -66.0680085 63.38007791 -72.177351 63.3965925 C-78.07148598 63.41188333 -83.96552821 63.4102185 -89.85968018 63.4014473 C-92.36029096 63.39944844 -94.86090943 63.40189349 -97.36151123 63.40888596 C-100.85840052 63.4165188 -104.35471587 63.40486965 -107.8515625 63.38818359 C-109.39629242 63.39729263 -109.39629242 63.39729263 -110.972229 63.40658569 C-116.76071236 63.35550977 -120.85801639 62.70696417 -126 60 C-126.3125 57.1875 -126.3125 57.1875 -126 54 C-123.14925356 51.68858396 -121.6860549 51 -118 51 C-118.11593506 50.36199463 -118.23187012 49.72398926 -118.35131836 49.06665039 C-120.69244739 36.03658841 -122.64010002 23.24431924 -123 10 C-121.02 9.67 -119.04 9.34 -117 9 C-117.33 7.02 -117.66 5.04 -118 3 C-112.63904667 1.87137825 -107.44693314 1.90311779 -102 2 C-102 2.99 -102 3.98 -102 5 C-96.555 5.495 -96.555 5.495 -91 6 C-91 6.33 -91 6.66 -91 7 C-92.051875 7.2475 -93.10375 7.495 -94.1875 7.75 C-97.8344144 8.76671553 -100.09162912 10.5763576 -103 13 C-103.99 13 -104.98 13 -106 13 C-106 13.99 -106 14.98 -106 16 C-105.38125 16.12375 -104.7625 16.2475 -104.125 16.375 C-102 17 -102 17 -100 19 C-96.3130433 19.98420613 -92.6517774 20.21660753 -88.8515625 20.4296875 C-87.68109375 20.50316406 -86.510625 20.57664062 -85.3046875 20.65234375 C-82.85980657 20.80028241 -80.41447488 20.9409581 -77.96875 21.07421875 C-71.67331685 21.4823842 -66.58572051 21.98469955 -61 25 C-61 26.98 -61 28.96 -61 31 C-62.98 31 -64.96 31 -67 31 C-67 30.01 -67 29.02 -67 28 C-73.93 28 -80.86 28 -88 28 C-88 28.99 -88 29.98 -88 31 C-92.29 31 -96.58 31 -101 31 C-101 31.99 -101 32.98 -101 34 C-99.32043213 34.03758423 -99.32043213 34.03758423 -97.60693359 34.07592773 C-93.4359272 34.17040014 -89.26507193 34.2705222 -85.09423828 34.37231445 C-83.29219102 34.41551311 -81.4901068 34.45719824 -79.68798828 34.49731445 C-77.09135825 34.55538376 -74.4949117 34.6189708 -71.8984375 34.68359375 C-71.0982016 34.70030624 -70.2979657 34.71701874 -69.47348022 34.73423767 C-65.24521488 34.8451541 -61.1311545 35.00242236 -57 36 C-56.67 36.66 -56.34 37.32 -56 38 C-55.01 37.34 -54.02 36.68 -53 36 C-49.79851787 38.13432142 -49.47793261 38.68419896 -48.3125 42.125 C-48.06113281 42.84945312 -47.80976562 43.57390625 -47.55078125 44.3203125 C-47.36902344 44.87460938 -47.18726562 45.42890625 -47 46 C-46.22914062 45.98839844 -45.45828125 45.97679687 -44.6640625 45.96484375 C-43.66117187 45.95582031 -42.65828125 45.94679687 -41.625 45.9375 C-40.12839844 45.92009766 -40.12839844 45.92009766 -38.6015625 45.90234375 C-36 46 -36 46 -34 47 C-34 46.34 -34 45.68 -34 45 C-33.34 45 -32.68 45 -32 45 C-32 45.66 -32 46.32 -32 47 C-28.99615946 46.3045656 -28.99615946 46.3045656 -26 45 C-25.24756445 43.07361988 -25.24756445 43.07361988 -25 41 C-24.02246356 39.97803008 -23.0194119 38.98020375 -22 38 C-21.54625 37.175 -21.0925 36.35 -20.625 35.5 C-18.74889348 32.61368228 -17.0695013 31.49539807 -14 30 C-13.34 30 -12.68 30 -12 30 C-11.86503749 27.89758397 -11.76802693 25.7927039 -11.6875 23.6875 C-11.62949219 22.51574219 -11.57148437 21.34398437 -11.51171875 20.13671875 C-11.67285156 19.10160156 -11.83398438 18.06648438 -12 17 C-14.43068504 15.16597666 -14.43068504 15.16597666 -17 14 C-17 13.34 -17 12.68 -17 12 C-21.455 11.01 -21.455 11.01 -26 10 C-25.67 9.01 -25.34 8.02 -25 7 C-22.68529088 6.27129528 -20.3494053 5.60760482 -18 5 C-17.01 4.34 -16.02 3.68 -15 3 C-12.64038264 2.39482755 -10.26216065 1.86027496 -7.875 1.375 C-6.61429687 1.11460938 -5.35359375 0.85421875 -4.0546875 0.5859375 C-1 0 -1 0 0 0 Z " fill="#00228F" transform="translate(126,49)"/>
<path d="M0 0 C2.19843711 4.53427655 2 6.43108581 2 12 C-28.03 17.28 -58.06 22.56 -89 28 C-58.97 28.33 -28.94 28.66 2 29 C2 30.98 2 32.96 2 35 C4.97 35 7.94 35 11 35 C11 39.29 11 43.58 11 48 C7.25631258 49.87184371 6.1599209 50.23999767 2.25 50.125 C1.45078125 50.10695312 0.6515625 50.08890625 -0.171875 50.0703125 C-0.77515625 50.04710937 -1.3784375 50.02390625 -2 50 C-2.99 47.69 -3.98 45.38 -5 43 C-17.50883739 42.79953921 -30.01779885 42.61584966 -42.52719116 42.45341206 C-48.33615671 42.37745748 -54.14492322 42.29578519 -59.95361328 42.20092773 C-65.56205859 42.10955267 -71.17052579 42.03335143 -76.77932739 41.96755028 C-78.91634783 41.93983518 -81.05330529 41.9067053 -83.19015503 41.86800575 C-86.18928137 41.814626 -89.18805652 41.78071752 -92.1875 41.7512207 C-93.06575943 41.73108414 -93.94401886 41.71094757 -94.84889221 41.69020081 C-100.57413445 41.66050654 -104.78869001 42.57262017 -110 45 C-111.55966008 47.01979579 -111.55966008 47.01979579 -112 49 C-112.33 49 -112.66 49 -113 49 C-113.02685938 46.85423363 -113.04633088 44.70837355 -113.0625 42.5625 C-113.07410156 41.36753906 -113.08570312 40.17257813 -113.09765625 38.94140625 C-113 36 -113 36 -112 35 C-109.66702567 34.95907063 -107.33294775 34.95758277 -105 35 C-105.165 33.865625 -105.33 32.73125 -105.5 31.5625 C-105.94994219 28.46914746 -106.02351071 25.45583489 -106.01367188 22.33569336 C-106.011698 21.52410263 -106.00972412 20.7125119 -106.00769043 19.87632751 C-106.00515259 19.25713943 -106.00261475 18.63795135 -106 18 C-92.94756769 15.34046716 -79.8781505 12.84705451 -66.7578125 10.546875 C-65.00714107 10.23876654 -63.25648008 9.93059874 -61.50582886 9.62237549 C-57.88455434 8.98547514 -54.2629444 8.35052393 -50.64111328 7.71679688 C-46.00937092 6.90601063 -41.37888805 6.08825013 -36.74865913 5.26887131 C-33.15473609 4.63400408 -29.56001522 4.00375073 -25.96505356 3.37479401 C-24.25599126 3.0750285 -22.54721707 2.77361533 -20.83874893 2.47048187 C-18.46249167 2.04936798 -16.08518881 1.63473567 -13.70751953 1.22167969 C-12.66491974 1.03474045 -12.66491974 1.03474045 -11.60125732 0.84402466 C-7.68862946 0.17230323 -3.96801534 -0.12031138 0 0 Z " fill="#82A3D4" transform="translate(115,1)"/>
<path d="M0 0 C0.66 0 1.32 0 2 0 C2 0.66 2 1.32 2 2 C3.0725 1.896875 4.145 1.79375 5.25 1.6875 C9 2 9 2 11.5 3.875 C13.3695464 7.76988834 12.99294731 10.13198875 12.26171875 14.3046875 C11.93553539 17.6638893 12.48468008 20.67515104 13 24 C13.76262146 23.99777939 14.52524292 23.99555878 15.31097412 23.99327087 C22.54757838 23.97311648 29.78416877 23.95794934 37.02079391 23.94818783 C40.73994915 23.94300042 44.45908092 23.93597937 48.17822266 23.92456055 C51.77681962 23.91358275 55.37539422 23.90769209 58.97400665 23.90512276 C60.99437702 23.90241413 63.01473857 23.89462655 65.03509521 23.88670349 C72.74306156 23.88624158 80.331294 24.21345319 88 25 C88 25.66 88 26.32 88 27 C91.36722307 27 93.39274467 26.58291387 95.8515625 24.22265625 C97.05531282 22.80632874 98.23494711 21.36906699 99.38671875 19.91015625 C101 18 101 18 104 16 C104.99 16 105.98 16 107 16 C107.0825 15.278125 107.165 14.55625 107.25 13.8125 C108.354787 9.66954876 110.44462706 6.98978278 114.0625 4.6875 C116 4 116 4 119 4 C119.33 3.34 119.66 2.68 120 2 C118.07289294 17.74487472 118.07289294 17.74487472 116 25 C116.763125 25.12375 117.52625 25.2475 118.3125 25.375 C121 26 121 26 124 28 C124.1875 31.125 124.1875 31.125 124 34 C117.87836916 37.22269315 112.69651493 37.42854725 105.8515625 37.38818359 C104.74987732 37.39344055 103.64819214 37.39869751 102.51312256 37.40411377 C98.88360273 37.41728137 95.25452404 37.40858679 91.625 37.3984375 C89.09586503 37.40045916 86.56673063 37.40337136 84.03759766 37.40713501 C78.74179994 37.41155399 73.44615928 37.40542864 68.15039062 37.39111328 C62.04104085 37.37478865 55.9319915 37.38007791 49.822649 37.3965925 C43.92851402 37.41188333 38.03447179 37.4102185 32.14031982 37.4014473 C29.63970904 37.39944844 27.13909057 37.40189349 24.63848877 37.40888596 C21.14159948 37.4165188 17.64528413 37.40486965 14.1484375 37.38818359 C12.60370758 37.39729263 12.60370758 37.39729263 11.027771 37.40658569 C5.23928764 37.35550977 1.14198361 36.70696417 -4 34 C-4.3125 31.1875 -4.3125 31.1875 -4 28 C-1.14925356 25.68858396 0.3139451 25 4 25 C3.87882813 24.27820557 3.75765625 23.55641113 3.6328125 22.81274414 C3.08770495 19.56280245 2.54383595 16.31265471 2 13.0625 C1.71382813 11.35803711 1.71382813 11.35803711 1.421875 9.61914062 C1.24140625 8.53955078 1.0609375 7.45996094 0.875 6.34765625 C0.70742187 5.34742432 0.53984375 4.34719238 0.3671875 3.31665039 C0 1 0 1 0 0 Z " fill="#000001" transform="translate(4,75)"/>
<path d="M0 0 C2.19843711 4.53427655 2 6.43108581 2 12 C-28.03 17.28 -58.06 22.56 -89 28 C-87.02 28.33 -85.04 28.66 -83 29 C-83 31 -83 31 -84.94921875 33.109375 C-89.04437699 35.64721954 -92.10810259 35.45505337 -96.8125 35.25 C-97.60076172 35.23195312 -98.38902344 35.21390625 -99.20117188 35.1953125 C-101.13464261 35.14844048 -103.06748285 35.0767041 -105 35 C-105.6216963 30.72583793 -106.02729808 26.65690494 -106.01367188 22.33569336 C-106.011698 21.52410263 -106.00972412 20.7125119 -106.00769043 19.87632751 C-106.00515259 19.25713943 -106.00261475 18.63795135 -106 18 C-92.94756769 15.34046716 -79.8781505 12.84705451 -66.7578125 10.546875 C-65.00714107 10.23876654 -63.25648008 9.93059874 -61.50582886 9.62237549 C-57.88455434 8.98547514 -54.2629444 8.35052393 -50.64111328 7.71679688 C-46.00937092 6.90601063 -41.37888805 6.08825013 -36.74865913 5.26887131 C-33.15473609 4.63400408 -29.56001522 4.00375073 -25.96505356 3.37479401 C-24.25599126 3.0750285 -22.54721707 2.77361533 -20.83874893 2.47048187 C-18.46249167 2.04936798 -16.08518881 1.63473567 -13.70751953 1.22167969 C-12.66491974 1.03474045 -12.66491974 1.03474045 -11.60125732 0.84402466 C-7.68862946 0.17230323 -3.96801534 -0.12031138 0 0 Z " fill="#ECECEC" transform="translate(115,1)"/>
<path d="M0 0 C1.41585892 0.0093734 1.41585892 0.0093734 2.86032104 0.01893616 C5.96200174 0.04230541 9.06327964 0.08070964 12.16479492 0.12011719 C14.32475701 0.14122422 16.48472533 0.16170256 18.6446991 0.18157959 C23.16118317 0.2255098 27.67750555 0.27686062 32.19384766 0.33349609 C37.99231701 0.40563514 43.79078748 0.45951944 49.58949757 0.50795364 C54.04439607 0.54710314 58.49915277 0.59568411 62.95392418 0.64717865 C65.09300438 0.67078778 67.23211893 0.69146759 69.37125587 0.70920563 C72.35187777 0.73536377 75.33206884 0.77415055 78.3125 0.81640625 C79.20133377 0.82170853 80.09016754 0.8270108 81.00593567 0.83247375 C87.10420873 0.93843725 87.10420873 0.93843725 89.33276367 3.16699219 C89.7304063 5.15520532 90.07051716 7.15643558 90.33276367 9.16699219 C91.98276367 9.16699219 93.63276367 9.16699219 95.33276367 9.16699219 C95.33276367 9.49699219 95.33276367 9.82699219 95.33276367 10.16699219 C94.59670898 10.29976562 93.8606543 10.43253906 93.10229492 10.56933594 C92.12647461 10.7459375 91.1506543 10.92253906 90.14526367 11.10449219 C89.18233398 11.27851562 88.2194043 11.45253906 87.22729492 11.63183594 C85.47629091 11.95557082 83.72920719 12.30355739 81.99243164 12.6965332 C79.22175601 13.18662793 76.69496548 13.26476661 73.88354492 13.22949219 C72.36470703 13.21789062 72.36470703 13.21789062 70.81518555 13.20605469 C69.24607422 13.18671875 69.24607422 13.18671875 67.64526367 13.16699219 C65.55807513 13.14155418 63.47082712 13.12049691 61.38354492 13.10449219 C60.46226807 13.09289063 59.54099121 13.08128906 58.59179688 13.06933594 C56.29750471 13.01455209 56.29750471 13.01455209 54.33276367 14.16699219 C51.32628579 14.27874669 48.3437541 14.33113158 45.33666992 14.33496094 C44.43335434 14.33828934 43.53003876 14.34161774 42.59934998 14.345047 C40.68017079 14.35011892 38.76098276 14.35245524 36.84179688 14.35229492 C33.93824131 14.35446014 31.03507901 14.37255338 28.1315918 14.39160156 C10.04555031 14.44488708 10.04555031 14.44488708 1.33276367 12.16699219 C1.33276367 11.17699219 1.33276367 10.18699219 1.33276367 9.16699219 C-6.58723633 9.66199219 -6.58723633 9.66199219 -14.66723633 10.16699219 C-13.67723633 11.65199219 -13.67723633 11.65199219 -12.66723633 13.16699219 C-13.04223633 15.35449219 -13.04223633 15.35449219 -13.66723633 17.16699219 C-15.64723633 17.16699219 -17.62723633 17.16699219 -19.66723633 17.16699219 C-20.62979205 12.4588392 -21.1285295 9.22412238 -19.16723633 4.72949219 C-13.9558114 -0.61221837 -7.01289604 -0.10693735 0 0 Z " fill="#6286BC" transform="translate(22.667236328125,41.8330078125)"/>
<path d="M0 0 C0.21242063 6.58503944 -0.21626639 12.96211481 -0.9375 19.5 C-1.02435059 20.30163574 -1.11120117 21.10327148 -1.20068359 21.92919922 C-1.8714468 27.74289359 -1.8714468 27.74289359 -3 30 C-4.7421875 30.9296875 -4.7421875 30.9296875 -6.875 31.875 C-10.15916611 33.46126986 -12.2391914 34.68553675 -14 38 C-14.09796875 38.66 -14.1959375 39.32 -14.296875 40 C-15 42 -15 42 -16.92578125 43.125 C-17.71339844 43.41375 -18.50101562 43.7025 -19.3125 44 C-22.19059465 45.0656086 -23.75559676 45.72020295 -25.79711914 48.05737305 C-28.60804619 50.53621008 -29.88308274 50.42131976 -33.5703125 50.20703125 C-34.63121094 50.15353516 -35.69210938 50.10003906 -36.78515625 50.04492188 C-38.43837891 49.92987305 -38.43837891 49.92987305 -40.125 49.8125 C-41.23488281 49.75513672 -42.34476562 49.69777344 -43.48828125 49.63867188 C-51.64682778 49.17658611 -51.64682778 49.17658611 -54 48 C-54 47.34 -54 46.68 -54 46 C-71.49 45.67 -88.98 45.34 -107 45 C-108.72400705 41.55198589 -108.63374008 37.76110962 -108 34 C-105.5776532 31.89638304 -104.21754366 31 -101 31 C-101 31.99 -101 32.98 -101 34 C-99.32043213 34.03758423 -99.32043213 34.03758423 -97.60693359 34.07592773 C-93.4359272 34.17040014 -89.26507193 34.2705222 -85.09423828 34.37231445 C-83.29219102 34.41551311 -81.4901068 34.45719824 -79.68798828 34.49731445 C-77.09135825 34.55538376 -74.4949117 34.6189708 -71.8984375 34.68359375 C-71.0982016 34.70030624 -70.2979657 34.71701874 -69.47348022 34.73423767 C-65.24521488 34.8451541 -61.1311545 35.00242236 -57 36 C-56.67 36.66 -56.34 37.32 -56 38 C-55.01 37.34 -54.02 36.68 -53 36 C-49.79851787 38.13432142 -49.47793261 38.68419896 -48.3125 42.125 C-48.06113281 42.84945312 -47.80976562 43.57390625 -47.55078125 44.3203125 C-47.36902344 44.87460938 -47.18726563 45.42890625 -47 46 C-46.22914062 45.98839844 -45.45828125 45.97679687 -44.6640625 45.96484375 C-43.66117187 45.95582031 -42.65828125 45.94679687 -41.625 45.9375 C-40.12839844 45.92009766 -40.12839844 45.92009766 -38.6015625 45.90234375 C-36 46 -36 46 -34 47 C-34 46.34 -34 45.68 -34 45 C-33.34 45 -32.68 45 -32 45 C-32 45.66 -32 46.32 -32 47 C-28.99615946 46.3045656 -28.99615946 46.3045656 -26 45 C-25.24756445 43.07361988 -25.24756445 43.07361988 -25 41 C-24.02246356 39.97803008 -23.0194119 38.98020375 -22 38 C-21.54625 37.175 -21.0925 36.35 -20.625 35.5 C-18.74889348 32.61368228 -17.0695013 31.49539807 -14 30 C-13.34 30 -12.68 30 -12 30 C-11.86503749 27.89758397 -11.76802693 25.7927039 -11.6875 23.6875 C-11.62949219 22.51574219 -11.57148437 21.34398437 -11.51171875 20.13671875 C-11.67285156 19.10160156 -11.83398438 18.06648438 -12 17 C-14.43068504 15.16597666 -14.43068504 15.16597666 -17 14 C-17 13.34 -17 12.68 -17 12 C-21.455 11.01 -21.455 11.01 -26 10 C-25.67 9.01 -25.34 8.02 -25 7 C-22.68529088 6.27129528 -20.3494053 5.60760482 -18 5 C-17.01 4.34 -16.02 3.68 -15 3 C-12.64038264 2.39482755 -10.26216065 1.86027496 -7.875 1.375 C-6.61429687 1.11460938 -5.35359375 0.85421875 -4.0546875 0.5859375 C-1 0 -1 0 0 0 Z " fill="#0036A4" transform="translate(126,49)"/>
<path d="M0 0 C-0.63808594 0.18175781 -1.27617188 0.36351562 -1.93359375 0.55078125 C-2.75988281 0.80214844 -3.58617187 1.05351563 -4.4375 1.3125 C-5.26121094 1.55613281 -6.08492187 1.79976562 -6.93359375 2.05078125 C-7.61550781 2.36402344 -8.29742187 2.67726562 -9 3 C-9.33 3.99 -9.66 4.98 -10 6 C-8.17275391 6.19916016 -8.17275391 6.19916016 -6.30859375 6.40234375 C-4.6848893 6.58066967 -3.06119175 6.75905843 -1.4375 6.9375 C-0.23770508 7.06801758 -0.23770508 7.06801758 0.98632812 7.20117188 C5.67256697 7.71761452 10.33680546 8.30521531 15 9 C14.39252336 15.43925234 14.39252336 15.43925234 12.6875 17.875 C10.80557263 19.12961825 9.18949867 19.50341267 7 20 C6.89042969 20.72445312 6.78085938 21.44890625 6.66796875 22.1953125 C5.77128895 27.66287223 4.84045685 32.22286803 2 37 C-4.04035313 36.56854621 -7.4276021 33.92317943 -11.375 29.4375 C-13.41902227 27.62932645 -15.19252979 27.10746479 -17.8125 26.375 C-18.69292969 26.12878906 -19.57335937 25.88257812 -20.48046875 25.62890625 C-23.30379201 24.92416975 -26.11463516 24.37965327 -29 24 C-28.33333333 21.33333333 -27.66666667 18.66666667 -27 16 C-28.546875 16.061875 -28.546875 16.061875 -30.125 16.125 C-36.48160948 16.14794805 -42.7369103 14.98520512 -49 14 C-49 13.34 -49 12.68 -49 12 C-49.97582031 12.02320312 -50.95164062 12.04640625 -51.95703125 12.0703125 C-53.22933594 12.08835937 -54.50164063 12.10640625 -55.8125 12.125 C-57.70935547 12.15980469 -57.70935547 12.15980469 -59.64453125 12.1953125 C-63 12 -63 12 -66 10 C-65.08412109 10.00112793 -64.16824219 10.00225586 -63.22460938 10.00341797 C-39.43706138 10.10879252 -39.43706138 10.10879252 -17 3 C-14.59963077 2.14054576 -12.18277661 1.32541021 -9.75 0.5625 C-8.73421875 0.23378906 -7.7184375 -0.09492187 -6.671875 -0.43359375 C-3.97449216 -1.00540736 -2.55875845 -0.93211915 0 0 Z " fill="#28A9FE" transform="translate(97,57)"/>
<path d="M0 0 C20.13 0 40.26 0 61 0 C61 1.98 61 3.96 61 6 C63.64 6 66.28 6 69 6 C69 6.66 69 7.32 69 8 C68.236875 8.2475 67.47375 8.495 66.6875 8.75 C63.89404116 9.7874057 63.89404116 9.7874057 62.4375 12.125 C61.963125 12.74375 61.48875 13.3625 61 14 C59.68 14 58.36 14 57 14 C56.505 13.01 56.505 13.01 56 12 C54.8126123 11.97494385 53.62522461 11.9498877 52.40185547 11.92407227 C8.9709902 10.99956987 8.9709902 10.99956987 -9 10 C-9 8.68 -9 7.36 -9 6 C-8.2575 5.71125 -7.515 5.4225 -6.75 5.125 C-4.43260203 4.17697356 -2.22082885 3.15154089 0 2 C0 1.34 0 0.68 0 0 Z " fill="#D6E6EE" transform="translate(56,30)"/>
<path d="M0 0 C0.66 0 1.32 0 2 0 C2 0.66 2 1.32 2 2 C3.0725 1.896875 4.145 1.79375 5.25 1.6875 C9 2 9 2 11.5 3.875 C13.3695464 7.76988834 12.99294731 10.13198875 12.26171875 14.3046875 C11.93553539 17.6638893 12.48468008 20.67515104 13 24 C14.14393219 23.99666908 14.14393219 23.99666908 15.31097412 23.99327087 C22.54757838 23.97311648 29.78416877 23.95794934 37.02079391 23.94818783 C40.73994915 23.94300042 44.45908092 23.93597937 48.17822266 23.92456055 C51.77681962 23.91358275 55.37539422 23.90769209 58.97400665 23.90512276 C60.99437702 23.90241413 63.01473857 23.89462655 65.03509521 23.88670349 C72.74306156 23.88624158 80.331294 24.21345319 88 25 C88 25.66 88 26.32 88 27 C91.36722307 27 93.39274467 26.58291387 95.8515625 24.22265625 C97.05531282 22.80632874 98.23494711 21.36906699 99.38671875 19.91015625 C101 18 101 18 104 16 C104.99 16 105.98 16 107 16 C107.0825 15.278125 107.165 14.55625 107.25 13.8125 C108.354787 9.66954876 110.44462706 6.98978278 114.0625 4.6875 C116 4 116 4 119 4 C119.33 3.34 119.66 2.68 120 2 C119.63157895 9.24561404 119.63157895 9.24561404 116.75 12.6875 C115.8425 13.450625 114.935 14.21375 114 15 C113.13375 15.86625 112.2675 16.7325 111.375 17.625 C110.59125 18.40875 109.8075 19.1925 109 20 C108.566875 20.5775 108.13375 21.155 107.6875 21.75 C104.80721353 23.88354554 101.51525573 23.71186428 98 24 C97.01 27.465 97.01 27.465 96 31 C93.72905229 30.85595878 91.45824793 30.70965714 89.1875 30.5625 C87.92292969 30.48128906 86.65835938 30.40007812 85.35546875 30.31640625 C83.11348048 30.16651124 80.88432095 29.98769878 78.64974976 29.75007629 C71.18085572 28.96327155 63.81242644 28.91711375 56.30859375 29.0078125 C53.7102902 29.02530449 51.11198268 29.04221504 48.51367188 29.05859375 C44.45131516 29.08847107 40.38910238 29.12459359 36.3269043 29.17138672 C32.3833594 29.21609877 28.4398393 29.23707762 24.49609375 29.2578125 C22.66032021 29.28574387 22.66032021 29.28574387 20.78746033 29.3142395 C19.09913841 29.31942093 19.09913841 29.31942093 17.37670898 29.32470703 C16.38396469 29.33438507 15.3912204 29.34406311 14.36839294 29.35403442 C13.58682327 29.23720306 12.8052536 29.1203717 12 29 C11.34 28.01 10.68 27.02 10 26 C6.94570927 24.78715124 6.94570927 24.78715124 4 24 C2.32773882 16.01731928 0.71378027 8.13709505 0 0 Z " fill="#000245" transform="translate(4,75)"/>
<path d="M0 0 C2.31 0 4.62 0 7 0 C6.47731534 2.76276177 5.89130413 5.3260876 5 8 C6.051875 8.03867188 6.051875 8.03867188 7.125 8.078125 C13.48259086 8.45819837 18.7404243 9.22709772 24 13 C26.25 15.625 26.25 15.625 28 18 C31.05975443 20.00796384 32.14485886 20 36 20 C36.391875 18.989375 36.78375 17.97875 37.1875 16.9375 C41.44185329 7.20195667 41.44185329 7.20195667 45.87890625 5.1171875 C47.8125 4.5625 47.8125 4.5625 51 4 C51 4.66 51 5.32 51 6 C49.35546875 7.078125 49.35546875 7.078125 47.1875 8.25 C43.2810804 10.56619569 41.61458917 12.6607916 40 17 C39.34 17 38.68 17 38 17 C37.505 19.475 37.505 19.475 37 22 C35.02 22.33 33.04 22.66 31 23 C31 22.34 31 21.68 31 21 C30.34 21 29.68 21 29 21 C29 21.66 29 22.32 29 23 C24.71 23 20.42 23 16 23 C15.05598958 20.68880208 14.11197917 18.37760417 13.16796875 16.06640625 C12.11596912 13.66627512 12.11596912 13.66627512 9 13 C8.34 14.32 7.68 15.64 7 17 C6.505 14.525 6.505 14.525 6 12 C-15.78 11.505 -15.78 11.505 -38 11 C-38.33 10.34 -38.66 9.68 -39 9 C-38.67 8.34 -38.34 7.68 -38 7 C-33.71 7 -29.42 7 -25 7 C-25 6.01 -25 5.02 -25 4 C-18.07 4 -11.14 4 -4 4 C-4 4.99 -4 5.98 -4 7 C-2.02 7 -0.04 7 2 7 C2 5.02 2 3.04 2 1 C1.34 0.67 0.68 0.34 0 0 Z " fill="#0554C7" transform="translate(63,73)"/>
<path d="M0 0 C2.97 0.33 5.94 0.66 9 1 C9 1.33 9 1.66 9 2 C7.948125 2.2475 6.89625 2.495 5.8125 2.75 C2.1655856 3.76671553 -0.09162912 5.5763576 -3 8 C-3.99 8 -4.98 8 -6 8 C-6 8.99 -6 9.98 -6 11 C-5.38125 11.12375 -4.7625 11.2475 -4.125 11.375 C-2 12 -2 12 0 14 C3.6869567 14.98420613 7.3482226 15.21660753 11.1484375 15.4296875 C12.31890625 15.50316406 13.489375 15.57664062 14.6953125 15.65234375 C17.14019343 15.80028241 19.58552512 15.9409581 22.03125 16.07421875 C28.32668315 16.4823842 33.41427949 16.98469955 39 20 C39 21.98 39 23.96 39 26 C37.02 26 35.04 26 33 26 C33 25.01 33 24.02 33 23 C26.07 23 19.14 23 12 23 C12 23.99 12 24.98 12 26 C11.34 26 10.68 26 10 26 C10 25.01 10 24.02 10 23 C9.16807129 23.03927612 9.16807129 23.03927612 8.31933594 23.0793457 C5.79651431 23.18354003 3.27414511 23.24838891 0.75 23.3125 C-0.12269531 23.35439453 -0.99539062 23.39628906 -1.89453125 23.43945312 C-8.32215225 23.56211765 -8.32215225 23.56211765 -11.5625 20.875 C-13.18087706 17.63824588 -13.59156784 15.29183165 -13.75 11.6875 C-13.80671875 10.61886719 -13.8634375 9.55023438 -13.921875 8.44921875 C-13.94765625 7.64097656 -13.9734375 6.83273438 -14 6 C-13.39671875 6.03480469 -12.7934375 6.06960937 -12.171875 6.10546875 C-7.14979759 6.32809339 -7.14979759 6.32809339 -2.5 4.6875 C-0.76884597 2.96307007 -0.76884597 2.96307007 0 0 Z " fill="#003CAF" transform="translate(26,54)"/>
<path d="M0 0 C2.97 0 5.94 0 9 0 C9.66 1.32 10.32 2.64 11 4 C40.205 4.495 40.205 4.495 70 5 C66 10 66 10 64 11 C60.99352212 11.1117545 58.01099043 11.16413939 55.00390625 11.16796875 C54.10059067 11.17129715 53.19727509 11.17462555 52.2665863 11.17805481 C50.34740712 11.18312673 48.42821908 11.18546305 46.5090332 11.18530273 C43.60547763 11.18746795 40.70231534 11.20556119 37.79882812 11.22460938 C19.71278664 11.27789489 19.71278664 11.27789489 11 9 C11 8.01 11 7.02 11 6 C3.08 6.495 3.08 6.495 -5 7 C-4.01 8.485 -4.01 8.485 -3 10 C-3.375 12.1875 -3.375 12.1875 -4 14 C-5.32 13.67 -6.64 13.34 -8 13 C-7.01 12.34 -6.02 11.68 -5 11 C-5.66 9.35 -6.32 7.7 -7 6 C-6.34 6 -5.68 6 -5 6 C-5 5.34 -5 4.68 -5 4 C-3.35 3.34 -1.7 2.68 0 2 C0 1.34 0 0.68 0 0 Z " fill="#2A66C3" transform="translate(13,45)"/>
<path d="M0 0 C2.00825252 4.14202082 2.08594362 7.43961691 2 12 C-1.82254158 12.85135157 -5.65738886 13.61988223 -9.5 14.375 C-10.57765625 14.61605469 -11.6553125 14.85710938 -12.765625 15.10546875 C-20.79269475 16.62278071 -20.79269475 16.62278071 -24.37304688 14.77587891 C-25.7199866 13.69877313 -27.03536033 12.58059799 -28.31054688 11.41943359 C-30.68085132 9.42796683 -32.47117275 9.37259773 -35.5 9.625 C-36.3559375 9.67914063 -37.211875 9.73328125 -38.09375 9.7890625 C-38.7228125 9.85867188 -39.351875 9.92828125 -40 10 C-39.01 9.67 -38.02 9.34 -37 9 C-37 8.34 -37 7.68 -37 7 C-33.72680757 4.81787171 -31.63543645 4.3941781 -27.79296875 3.7109375 C-26.56642578 3.49179688 -25.33988281 3.27265625 -24.07617188 3.046875 C-22.79291016 2.82515625 -21.50964844 2.6034375 -20.1875 2.375 C-18.28000977 2.03082031 -18.28000977 2.03082031 -16.33398438 1.6796875 C-10.81230122 0.70782499 -5.62160926 -0.13898855 0 0 Z " fill="#D7D7D7" transform="translate(115,1)"/>
<path d="M0 0 C7.83259917 0.10783712 15.66511225 0.22053631 23.49755192 0.33933926 C27.13497631 0.39436136 30.77240898 0.44774659 34.40991211 0.49731445 C37.92425987 0.54526561 41.43851773 0.59761647 44.95275688 0.65294075 C46.93729756 0.68305716 48.92190467 0.70868812 50.9065094 0.73423767 C60.99291781 0.89903616 60.99291781 0.89903616 65.31420898 1.58227539 C66.20052002 1.72012451 67.08683105 1.85797363 68 2 C68.33 1.67 68.66 1.34 69 1 C71.12308153 0.90057194 73.24959672 0.87030816 75.375 0.875 C76.53773437 0.87242188 77.70046875 0.86984375 78.8984375 0.8671875 C82 1 82 1 85 2 C86.99673484 2.35236497 88.99650739 2.68834559 91 3 C91 3.66 91 4.32 91 5 C92.65 5 94.3 5 96 5 C96 5.33 96 5.66 96 6 C94.89591797 6.19916016 94.89591797 6.19916016 93.76953125 6.40234375 C92.79371094 6.57894531 91.81789063 6.75554688 90.8125 6.9375 C89.84957031 7.11152344 88.88664062 7.28554688 87.89453125 7.46484375 C86.13867273 7.78947616 84.38694982 8.13975153 82.64599609 8.53662109 C78.04357426 9.3426182 73.46120142 8.90658018 68.8125 8.6875 C67.80251953 8.65205078 66.79253906 8.61660156 65.75195312 8.58007812 C64.78837891 8.53689453 63.82480469 8.49371094 62.83203125 8.44921875 C61.95264893 8.41143311 61.0732666 8.37364746 60.16723633 8.3347168 C58 8 58 8 56 6 C56.33 5.67 56.66 5.34 57 5 C38.85 4.67 20.7 4.34 2 4 C1.34 2.68 0.68 1.36 0 0 Z " fill="#4773B4" transform="translate(22,46)"/>
<path d="M0 0 C0.10931156 5.48986945 0.02133314 10.95595976 -0.3125 16.4375 C-0.37050781 17.42621094 -0.42851563 18.41492188 -0.48828125 19.43359375 C-1.24280629 23.21773843 -2.9515657 24.28834765 -6.04296875 26.38671875 C-6.75066406 26.81597656 -7.45835938 27.24523437 -8.1875 27.6875 C-8.90292969 28.12449219 -9.61835937 28.56148437 -10.35546875 29.01171875 C-11.16951172 29.50091797 -11.16951172 29.50091797 -12 30 C-11.94199219 29.09636719 -11.88398437 28.19273438 -11.82421875 27.26171875 C-11.77910156 26.08222656 -11.73398438 24.90273437 -11.6875 23.6875 C-11.62949219 22.51574219 -11.57148437 21.34398437 -11.51171875 20.13671875 C-11.67285156 19.10160156 -11.83398438 18.06648438 -12 17 C-14.43068504 15.16597666 -14.43068504 15.16597666 -17 14 C-17 13.34 -17 12.68 -17 12 C-21.455 11.01 -21.455 11.01 -26 10 C-25.67 9.01 -25.34 8.02 -25 7 C-22.68529088 6.27129528 -20.3494053 5.60760482 -18 5 C-17.01 4.34 -16.02 3.68 -15 3 C-12.64038264 2.39482755 -10.26216065 1.86027496 -7.875 1.375 C-5.98394531 0.98441406 -5.98394531 0.98441406 -4.0546875 0.5859375 C-1 0 -1 0 0 0 Z " fill="#0B4BAE" transform="translate(126,49)"/>
<path d="M0 0 C0.96292969 0.73089844 1.92585938 1.46179688 2.91796875 2.21484375 C3.89378906 2.94832031 4.86960937 3.68179687 5.875 4.4375 C6.61105469 5.00339844 7.34710938 5.56929687 8.10546875 6.15234375 C7.77546875 6.81234375 7.44546875 7.47234375 7.10546875 8.15234375 C4.04296875 8.77734375 4.04296875 8.77734375 1.10546875 9.15234375 C4.07546875 9.64734375 4.07546875 9.64734375 7.10546875 10.15234375 C7.10546875 12.15234375 7.10546875 12.15234375 5.15625 14.26171875 C1.06109176 16.79956329 -2.00263384 16.60739712 -6.70703125 16.40234375 C-7.88942383 16.37527344 -7.88942383 16.37527344 -9.09570312 16.34765625 C-11.02917386 16.30078423 -12.9620141 16.22904785 -14.89453125 16.15234375 C-15.48189262 11.7864451 -16.0259713 7.56450718 -15.95703125 3.15234375 C-15.94800781 2.38921875 -15.93898438 1.62609375 -15.9296875 0.83984375 C-15.91808594 0.28296875 -15.90648437 -0.27390625 -15.89453125 -0.84765625 C-9.58883201 -2.66455264 -5.83274296 -3.7231949 0 0 Z " fill="#0E0E0E" transform="translate(24.89453125,19.84765625)"/>
<path d="M0 0 C-2.54927202 2.54927202 -4.6693826 2.93929962 -8.125 3.9375 C-11.71775057 4.98151105 -15.05428552 6.02487576 -18.4609375 7.5859375 C-24.80962462 10.01085762 -31.79183876 9.57800794 -38.5 9.6875 C-39.90888486 9.72072842 -41.31774045 9.75522305 -42.7265625 9.79101562 C-46.15076635 9.8731027 -49.57536927 9.93823738 -53 10 C-46.07 10.495 -46.07 10.495 -39 11 C-39 11.33 -39 11.66 -39 12 C-41.70860665 12.05429278 -44.41610901 12.09381211 -47.125 12.125 C-47.88554688 12.14175781 -48.64609375 12.15851563 -49.4296875 12.17578125 C-53.98005729 12.21500858 -57.79678526 11.97721316 -62 10 C-62.33 9.01 -62.66 8.02 -63 7 C-63.66 6.34 -64.32 5.68 -65 5 C-59.78117168 2.88588398 -55.18467614 2.69061743 -49.6484375 2.65625 C-48.75315338 2.6416272 -47.85786926 2.62700439 -46.93545532 2.61193848 C-44.08201548 2.56564551 -41.22864044 2.53136929 -38.375 2.5 C-22.78088931 2.47757556 -22.78088931 2.47757556 -7.36181641 0.41992188 C-4.86292662 -0.02437112 -2.5327605 -0.07005628 0 0 Z " fill="#1C93FE" transform="translate(87,58)"/>
<path d="M0 0 C0 0.99 0 1.98 0 3 C0.66 3 1.32 3 2 3 C1.64978759 5.53903996 1.15988127 6.82093298 -0.5625 8.75 C-4.13999057 10.58461055 -7.00628343 10.19968583 -11 10 C-11 14.29 -11 18.58 -11 23 C-13.97 23.33 -16.94 23.66 -20 24 C-20.33 18.72 -20.66 13.44 -21 8 C-19.02 7.67 -17.04 7.34 -15 7 C-15.33 5.02 -15.66 3.04 -16 1 C-10.63904667 -0.12862175 -5.44693314 -0.09688221 0 0 Z " fill="#0C4089" transform="translate(24,51)"/>
<path d="M0 0 C1.04077698 0.00022659 2.08155396 0.00045319 3.15386963 0.00068665 C4.27066101 0.0161705 5.38745239 0.03165436 6.53808594 0.04760742 C8.26088776 0.05397469 8.26088776 0.05397469 10.01849365 0.06047058 C13.68672124 0.07726284 17.3543994 0.1149172 21.02246094 0.15307617 C23.50943217 0.16812225 25.99641201 0.18181079 28.48339844 0.1940918 C34.57994005 0.22716821 40.67616124 0.27737362 46.77246094 0.34057617 C43.161508 4.37706809 38.68367682 5.09803905 33.46618652 5.53271484 C30.95739037 5.63224283 28.45503382 5.6690067 25.94433594 5.68432617 C24.57719452 5.70626038 24.57719452 5.70626038 23.18243408 5.7286377 C19.31479323 5.79048281 15.44700377 5.83060681 11.57910156 5.87231445 C8.74234358 5.90604014 5.90592215 5.95112453 3.06933594 5.99682617 C2.19637878 6.00210327 1.32342163 6.00738037 0.42401123 6.01281738 C-0.79811066 6.03293884 -0.79811066 6.03293884 -2.04492188 6.0534668 C-3.11459198 6.06440369 -3.11459198 6.06440369 -4.20587158 6.07556152 C-6.54335257 6.38197527 -8.18650492 7.18768029 -10.22753906 8.34057617 C-10.22753906 9.33057617 -10.22753906 10.32057617 -10.22753906 11.34057617 C-11.54753906 10.68057617 -12.86753906 10.02057617 -14.22753906 9.34057617 C-14.22753906 8.35057617 -14.22753906 7.36057617 -14.22753906 6.34057617 C-11.97753906 4.84057617 -11.97753906 4.84057617 -9.22753906 3.34057617 C-8.61863831 2.82166306 -8.00973755 2.30274994 -7.38238525 1.76811218 C-4.71461133 0.00077336 -3.17956019 -0.02315214 0 0 Z " fill="#025FEF" transform="translate(34.2275390625,55.659423828125)"/>
<path d="M0 0 C4.29 0 8.58 0 13 0 C8.60546875 5.17578125 8.60546875 5.17578125 7 7 C6.37931641 7.78987305 6.37931641 7.78987305 5.74609375 8.59570312 C3.28628589 10.57400498 1.58250035 10.34257937 -1.54296875 10.29296875 C-3.15268555 10.2784668 -3.15268555 10.2784668 -4.79492188 10.26367188 C-5.91447266 10.23853516 -7.03402344 10.21339844 -8.1875 10.1875 C-9.31865234 10.17396484 -10.44980469 10.16042969 -11.61523438 10.14648438 C-14.41063317 10.11109958 -17.20507892 10.06172948 -20 10 C-20.33 10.99 -20.66 11.98 -21 13 C-21.969375 13.474375 -22.93875 13.94875 -23.9375 14.4375 C-27.10211637 16.05210019 -27.87470028 16.73663082 -29 20 C-29.33 20 -29.66 20 -30 20 C-30.02685938 17.85423363 -30.04633088 15.70837355 -30.0625 13.5625 C-30.07410156 12.36753906 -30.08570312 11.17257813 -30.09765625 9.94140625 C-30 7 -30 7 -29 6 C-27.25539933 5.87873768 -25.50634226 5.82036316 -23.7578125 5.7890625 C-22.69175781 5.76070312 -21.62570313 5.73234375 -20.52734375 5.703125 C-18.26708939 5.65122479 -16.00664784 5.6068995 -13.74609375 5.5703125 C-12.67746094 5.539375 -11.60882812 5.5084375 -10.5078125 5.4765625 C-9.03272217 5.4468335 -9.03272217 5.4468335 -7.52783203 5.41650391 C-4.61769199 4.93700816 -3.88774118 4.16698006 -2 2 C-1.34 2 -0.68 2 0 2 C0 1.34 0 0.68 0 0 Z " fill="#B1D1FB" transform="translate(32,30)"/>
<path d="M0 0 C1.14023098 3.42069294 1.12770913 4.61687262 0 8 C-2.25 10.5 -2.25 10.5 -5 13 C-5.86625 13.86625 -6.7325 14.7325 -7.625 15.625 C-8.40875 16.40875 -9.1925 17.1925 -10 18 C-10.433125 18.5775 -10.86625 19.155 -11.3125 19.75 C-13.36987842 21.27398402 -14.47486601 21.16991502 -17 21.3125 C-19.10544152 21.41628747 -19.10544152 21.41628747 -21 22 C-23.08632697 24.91841857 -23.08632697 24.91841857 -24 28 C-27.10929347 27.50859123 -30.17572228 26.96051764 -33.24780273 26.27026367 C-47.73391744 23.21792334 -62.31403021 23.43763198 -77.0625 23.3125 C-79.77933511 23.28082674 -82.49610946 23.24495556 -85.21289062 23.20898438 C-91.80849002 23.12481562 -98.40410578 23.0561683 -105 23 C-105 22.67 -105 22.34 -105 22 C-97.1234584 21.97668192 -89.24692511 21.95898675 -81.37035751 21.94818783 C-77.71173623 21.94300115 -74.05313881 21.93598148 -70.39453125 21.92456055 C-66.85428894 21.91358009 -63.31406938 21.90769155 -59.77381134 21.90512276 C-57.78667957 21.90241502 -55.79955677 21.8946279 -53.81243896 21.88670349 C-46.15566994 21.88623724 -38.61792937 22.22151298 -31 23 C-31 23.66 -31 24.32 -31 25 C-27.63277693 25 -25.60725533 24.58291387 -23.1484375 22.22265625 C-21.94468718 20.80632874 -20.76505289 19.36906699 -19.61328125 17.91015625 C-18 16 -18 16 -15 14 C-14.01 14 -13.02 14 -12 14 C-11.9175 13.278125 -11.835 12.55625 -11.75 11.8125 C-10.645213 7.66954876 -8.55537294 4.98978278 -4.9375 2.6875 C-3 2 -3 2 0 2 C0 1.34 0 0.68 0 0 Z " fill="#00036C" transform="translate(123,77)"/>
<path d="M0 0 C1.45501711 0.00094152 2.91026942 0.03435974 4.36401367 0.09521484 C5.13380051 0.10370453 5.90358734 0.11219421 6.69670105 0.12094116 C9.14324952 0.15439531 11.58643933 0.22964642 14.03198242 0.30615234 C15.6953461 0.33626287 17.35876171 0.36363679 19.0222168 0.38818359 C23.08925614 0.45415866 27.15380093 0.55761391 31.21948242 0.68115234 C29.93077788 3.61385848 29.44602756 4.54630405 26.59448242 6.24365234 C25.81073242 6.71802734 25.02698242 7.19240234 24.21948242 7.68115234 C24.21948242 8.67115234 24.21948242 9.66115234 24.21948242 10.68115234 C19.92948242 10.68115234 15.63948242 10.68115234 11.21948242 10.68115234 C11.54948242 9.69115234 11.87948242 8.70115234 12.21948242 7.68115234 C5.28948242 7.35115234 -1.64051758 7.02115234 -8.78051758 6.68115234 C-3.78051758 0.68115234 -3.78051758 0.68115234 0 0 Z " fill="#C9DDF1" transform="translate(72.780517578125,29.31884765625)"/>
<path d="M0 0 C4.29 0 8.58 0 13 0 C11.68 1.65 10.36 3.3 9 5 C15.93 5.33 22.86 5.66 30 6 C29.34 7.32 28.68 8.64 28 10 C15.79 10 3.58 10 -9 10 C-9 8.68 -9 7.36 -9 6 C-8.2575 5.71125 -7.515 5.4225 -6.75 5.125 C-4.43260203 4.17697356 -2.22082885 3.15154089 0 2 C0 1.34 0 0.68 0 0 Z " fill="#BAD9FD" transform="translate(56,30)"/>
<path d="M0 0 C0.90105469 -0.01417969 1.80210938 -0.02835938 2.73046875 -0.04296875 C5.8125 0.1875 5.8125 0.1875 9.51254272 1.18870544 C13.58658039 2.23029702 17.50136805 2.45255642 21.69384766 2.39868164 C22.43640305 2.3973674 23.17895844 2.39605316 23.9440155 2.3946991 C26.37166643 2.38826591 28.7989908 2.36786251 31.2265625 2.34765625 C32.92711037 2.3413765 34.62766238 2.33613952 36.32821655 2.33189392 C40.78766702 2.31864594 45.24697825 2.29423855 49.70635986 2.26654053 C56.84977396 2.22327807 63.99322545 2.19363344 71.13673019 2.1704998 C73.62389082 2.16032066 76.11093649 2.14326919 78.59805298 2.12550354 C80.12868143 2.11867264 81.65931089 2.11206397 83.18994141 2.10571289 C83.87580826 2.09897552 84.56167511 2.09223816 85.26832581 2.08529663 C89.22325529 2.07599702 92.93212631 2.42653982 96.8125 3.1875 C96.4825 4.1775 96.1525 5.1675 95.8125 6.1875 C94.14638095 6.230221 92.47867115 6.22813832 90.8125 6.1875 C90.3175 5.6925 90.3175 5.6925 89.8125 5.1875 C87.66855481 5.0883243 85.52123268 5.0577985 83.375 5.0625 C81.61349609 5.05863281 81.61349609 5.05863281 79.81640625 5.0546875 C76.8884191 4.97984454 76.8884191 4.97984454 74.8125 6.1875 C72.80857258 5.87865374 70.80891175 5.54169099 68.8125 5.1875 C66.91173738 5.08915985 65.00843604 5.03277215 63.10522461 5.01391602 C62.00645493 5.00042618 60.90768524 4.98693634 59.77561951 4.97303772 C58.60056351 4.96259933 57.42550751 4.95216095 56.21484375 4.94140625 C53.69596028 4.90845187 51.17708015 4.87524051 48.65820312 4.84179688 C44.71104349 4.79455921 40.76389586 4.75013886 36.81665039 4.71069336 C32.99090385 4.67062439 29.1654337 4.61915371 25.33984375 4.56640625 C24.17895737 4.5579921 23.01807098 4.54957794 21.82200623 4.54090881 C14.00416857 4.42483065 6.50721858 3.56574809 -1.1875 2.1875 C-1.1875 2.8475 -1.1875 3.5075 -1.1875 4.1875 C-2.8375 4.8475 -4.4875 5.5075 -6.1875 6.1875 C-6.1875 6.8475 -6.1875 7.5075 -6.1875 8.1875 C-6.8475 8.1875 -7.5075 8.1875 -8.1875 8.1875 C-7.1975 10.1675 -6.2075 12.1475 -5.1875 14.1875 C-7.1675 14.8475 -9.1475 15.5075 -11.1875 16.1875 C-12.18205488 11.32282941 -12.71506022 8.24262044 -10.4375 3.6875 C-7.20939878 0.10072086 -4.61033756 0.03251296 0 0 Z " fill="#527AB7" transform="translate(14.1875,42.8125)"/>
<path d="M0 0 C0 0.66 0 1.32 0 2 C-1.64453125 3.078125 -1.64453125 3.078125 -3.8125 4.25 C-7.7189196 6.56619569 -9.38541083 8.6607916 -11 13 C-11.66 13 -12.32 13 -13 13 C-13.33 14.65 -13.66 16.3 -14 18 C-15.98 18.33 -17.96 18.66 -20 19 C-20 18.34 -20 17.68 -20 17 C-20.66 17 -21.32 17 -22 17 C-22 17.66 -22 18.32 -22 19 C-26.29 19 -30.58 19 -35 19 C-39 10.25 -39 10.25 -39 8 C-37.35 8 -35.7 8 -34 8 C-34 8.66 -34 9.32 -34 10 C-32.88625 9.87625 -32.88625 9.87625 -31.75 9.75 C-28.15907208 10.07644799 -27.46265127 11.46272293 -25 14 C-21.3388127 15.52549471 -19.005002 16 -15 16 C-14.608125 14.989375 -14.21625 13.97875 -13.8125 12.9375 C-11.64178599 7.92345638 -9.2421376 3.1992829 -4.3125 0.5625 C-2 0 -2 0 0 0 Z " fill="#0245D7" transform="translate(114,77)"/>
<path d="M0 0 C1.8871875 0.00773437 1.8871875 0.00773437 3.8125 0.015625 C5.070625 0.01046875 6.32875 0.0053125 7.625 0 C10.8125 0.265625 10.8125 0.265625 12.8125 2.265625 C13.08241906 4.95401885 12.89987357 7.55704436 12.8125 10.265625 C10.35409395 10.29254185 7.89598118 10.31242302 5.4375 10.328125 C4.73882812 10.33650391 4.04015625 10.34488281 3.3203125 10.35351562 C-1.9609375 10.37890625 -1.9609375 10.37890625 -4.1875 9.265625 C-4.9375 5.828125 -4.9375 5.828125 -5.1875 2.265625 C-3.1875 0.265625 -3.1875 0.265625 0 0 Z " fill="#8FD2FD" transform="translate(88.1875,72.734375)"/>
<path d="M0 0 C1.06863281 0.73347656 2.13726562 1.46695312 3.23828125 2.22265625 C4.45064453 3.07150391 4.45064453 3.07150391 5.6875 3.9375 C1.41049164 6.78883891 -2.18473823 7.72004999 -7.3125 6.9375 C-11.71802601 4.3594131 -15.49099088 1.30594361 -19.3125 -2.0625 C-13.32049699 -8.05450301 -5.80030812 -4.01559793 0 0 Z " fill="#E9E9E9" transform="translate(40.3125,20.0625)"/>
<path d="M0 0 C-10.06377488 5.1383326 -20.21597116 4.46070424 -31.1875 4.25 C-33.01625642 4.22989843 -34.84503424 4.21165415 -36.67382812 4.1953125 C-41.11642185 4.15161983 -45.55797004 4.08279646 -50 4 C-50 4.99 -50 5.98 -50 7 C-49.01 7.33 -48.02 7.66 -47 8 C-48.32 8.33 -49.64 8.66 -51 9 C-51.28875 8.38125 -51.5775 7.7625 -51.875 7.125 C-52.93720042 4.86674235 -52.93720042 4.86674235 -55 3 C-49.70095025 0.84052788 -44.96002856 0.675009 -39.33203125 0.62109375 C-38.41540207 0.60409927 -37.49877289 0.5871048 -36.55436707 0.56959534 C-33.64048044 0.51668895 -30.72660641 0.47625846 -27.8125 0.4375 C-24.88775216 0.39352425 -21.96311211 0.34682107 -19.03849792 0.29469299 C-17.22226608 0.26281558 -15.40593889 0.23590087 -13.58955383 0.21446228 C-12.76827499 0.20097244 -11.94699615 0.1874826 -11.10083008 0.17358398 C-10.37946365 0.16407211 -9.65809723 0.15456024 -8.91487122 0.14476013 C-1.37114897 -0.42552899 -1.37114897 -0.42552899 0 0 Z " fill="#1081FE" transform="translate(77,60)"/>
<path d="M0 0 C0.05395478 1.62463842 0.09277195 3.24978541 0.125 4.875 C0.14820312 5.77992187 0.17140625 6.68484375 0.1953125 7.6171875 C0 10 0 10 -2 12 C-4.70769626 11.84384341 -7.26379758 11.58020739 -9.9375 11.1875 C-10.66646484 11.09146484 -11.39542969 10.99542969 -12.14648438 10.89648438 C-15.21872972 10.47690183 -18.05240704 9.98253099 -21 9 C-21 8.34 -21 7.68 -21 7 C-15.69129242 2.15970779 -7.12053909 0 0 0 Z " fill="#011B6C" transform="translate(126,49)"/>
<path d="M0 0 C5.625 -0.25 5.625 -0.25 9 2 C11.47553883 2.3145084 11.47553883 2.3145084 14.27832031 2.28710938 C15.35664124 2.30052368 16.43496216 2.31393799 17.54595947 2.32775879 C19.29438141 2.33567444 19.29438141 2.33567444 21.078125 2.34375 C22.27806091 2.3583728 23.47799683 2.37299561 24.71429443 2.38806152 C28.55949565 2.4346458 32.40464513 2.46878381 36.25 2.5 C41.29706467 2.54119794 46.34376905 2.59494292 51.390625 2.65625 C52.5481427 2.6615271 53.7056604 2.6668042 54.89825439 2.67224121 C60.64341208 2.74288492 65.57907275 3.04401545 71 5 C71 5.33 71 5.66 71 6 C62.82039446 6.06943077 54.64091149 6.12277566 46.46108437 6.15543652 C42.66307817 6.17111006 38.86527319 6.19237859 35.06738281 6.22631836 C31.40397533 6.25885241 27.74076169 6.27684029 24.07722092 6.28463173 C22.6777173 6.29018603 21.27822461 6.30103199 19.87880325 6.31719017 C17.92272489 6.33888273 15.96645252 6.3402247 14.01025391 6.34057617 C12.33813339 6.35056892 12.33813339 6.35056892 10.63223267 6.36076355 C9.3292775 6.18218559 9.3292775 6.18218559 8 6 C7.34 5.01 6.68 4.02 6 3 C2.94570927 1.78715124 2.94570927 1.78715124 0 1 C0 0.67 0 0.34 0 0 Z " fill="#000027" transform="translate(8,98)"/>
<path d="M0 0 C0.96679688 0.73347656 1.93359375 1.46695312 2.9296875 2.22265625 C3.65414062 2.78855469 4.37859375 3.35445312 5.125 3.9375 C2.62577194 6.43672806 0.3995279 7.0077715 -3.078125 7.3828125 C-9.12340847 6.4202953 -14.17445302 1.66451793 -18.875 -2.0625 C-13.07282054 -7.86467946 -5.56568723 -4.27607678 0 0 Z " fill="#1B1B1B" transform="translate(51.875,18.0625)"/>
<path d="M0 0 C1.65032811 0.14262095 3.29968578 0.31453187 4.9375 0.5625 C4.9375 1.2225 4.9375 1.8825 4.9375 2.5625 C1.63399386 5.68247802 0.61340167 6.5625 -4.0625 6.5625 C-4.0625 7.8825 -4.0625 9.2025 -4.0625 10.5625 C0.8875 10.5625 5.8375 10.5625 10.9375 10.5625 C10.9375 10.8925 10.9375 11.2225 10.9375 11.5625 C-2.5925 11.5625 -16.1225 11.5625 -30.0625 11.5625 C-30.0625 11.2325 -30.0625 10.9025 -30.0625 10.5625 C-29.08410156 10.59472656 -28.10570313 10.62695312 -27.09765625 10.66015625 C-19.28075889 10.80342801 -19.28075889 10.80342801 -12.44921875 7.4921875 C-11.04178702 5.85061265 -9.64810335 4.19713445 -8.26953125 2.53125 C-5.42704739 -0.00434622 -3.75857927 -0.03820665 0 0 Z " fill="#B1D0F9" transform="translate(51.0625,29.4375)"/>
<path d="M0 0 C-0.6290625 0.23074219 -1.258125 0.46148437 -1.90625 0.69921875 C-7.72665783 2.91693438 -12.85152236 5.50426691 -18 9 C-21.83542457 11.55694972 -23.65902533 11.04045639 -28.1875 10.625 C-30.09595703 10.45871094 -30.09595703 10.45871094 -32.04296875 10.2890625 C-33.01878906 10.19367188 -33.99460937 10.09828125 -35 10 C-35 9.34 -35 8.68 -35 8 C-35.97582031 8.02320312 -36.95164062 8.04640625 -37.95703125 8.0703125 C-39.22933594 8.08835937 -40.50164063 8.10640625 -41.8125 8.125 C-43.70935547 8.15980469 -43.70935547 8.15980469 -45.64453125 8.1953125 C-49 8 -49 8 -52 6 C-51.08412109 6.00112793 -50.16824219 6.00225586 -49.22460938 6.00341797 C-26.82168935 6.41533079 -26.82168935 6.41533079 -5.6328125 0.1796875 C-3 -1 -3 -1 0 0 Z " fill="#249EFE" transform="translate(83,61)"/>
<path d="M0 0 C5.94 0 11.88 0 18 0 C18 5.65031797 17.64694025 7.36785457 15 12 C9.54219073 11.61015648 6.84460059 9.84460059 3 6 C2.01 4.02 1.02 2.04 0 0 Z " fill="#4E8EE2" transform="translate(84,82)"/>
<path d="M0 0 C-0.99 0.495 -0.99 0.495 -2 1 C-2 1.66 -2 2.32 -2 3 C-1.01 2.87625 -0.02 2.7525 1 2.625 C6.11141181 2.56228329 9.31963747 5.78804725 13 9 C8.9971546 11.07587387 5.56101686 12.81116368 1 12 C-3.63070837 9.35842753 -7.80526176 6.28033646 -12 3 C-11.67 2.34 -11.34 1.68 -11 1 C-7.29882394 0.15882362 -3.78728969 -0.11139087 0 0 Z " fill="#EFEFEF" transform="translate(80,7)"/>
<path d="M0 0 C0 2.75 0 2.75 -1 6 C-2.94389541 7.28140191 -4.92385032 8.14614808 -7.05859375 9.0703125 C-9.56009696 10.26821544 -10.70475845 11.56189826 -12 14 C-12.144375 14.70125 -12.28875 15.4025 -12.4375 16.125 C-13 18 -13 18 -14.8125 19.25 C-17 20 -17 20 -21 20 C-20.1755655 12.27723603 -20.1755655 12.27723603 -17.5546875 9.4296875 C-15.75583481 8.14709746 -13.94102383 7.05447975 -12 6 C-11.36964844 5.63132812 -10.73929688 5.26265625 -10.08984375 4.8828125 C-8.40444049 3.90234436 -6.70292562 2.94970852 -5 2 C-2 0 -2 0 0 0 Z " fill="#0037A2" transform="translate(124,73)"/>
<path d="M0 0 C0.495 0.99 0.495 0.99 1 2 C2.65 2 4.3 2 6 2 C6 2.33 6 2.66 6 3 C4.89591797 3.19916016 4.89591797 3.19916016 3.76953125 3.40234375 C2.79371094 3.57894531 1.81789062 3.75554688 0.8125 3.9375 C-0.63189453 4.19853516 -0.63189453 4.19853516 -2.10546875 4.46484375 C-3.86132727 4.78947616 -5.61305018 5.13975153 -7.35400391 5.53662109 C-11.95642574 6.3426182 -16.53879858 5.90658018 -21.1875 5.6875 C-22.19748047 5.65205078 -23.20746094 5.61660156 -24.24804688 5.58007812 C-25.6934082 5.51530273 -25.6934082 5.51530273 -27.16796875 5.44921875 C-28.04735107 5.41143311 -28.9267334 5.37364746 -29.83276367 5.3347168 C-32 5 -32 5 -34 3 C-29.98749166 1.09832616 -26.84221335 0.77458162 -22.421875 0.83984375 C-21.17921875 0.85080078 -19.9365625 0.86175781 -18.65625 0.87304688 C-16.72265625 0.90495117 -16.72265625 0.90495117 -14.75 0.9375 C-12.18234548 0.97175231 -9.61463225 1.00193365 -7.046875 1.02734375 C-5.34289551 1.05429321 -5.34289551 1.05429321 -3.60449219 1.08178711 C-1.07150752 1.2996957 -1.07150752 1.2996957 0 0 Z " fill="#3C77D9" transform="translate(112,49)"/>
<path d="M0 0 C0.96292969 0.7425 1.92585938 1.485 2.91796875 2.25 C3.89378906 2.9925 4.86960937 3.735 5.875 4.5 C6.61105469 5.0775 7.34710938 5.655 8.10546875 6.25 C4.1224363 8.90535496 0.90097116 9.94447062 -3.89453125 9.25 C-7.66349066 7.03573635 -10.89226538 4.42776367 -13.89453125 1.25 C-13.89453125 0.59 -13.89453125 -0.07 -13.89453125 -0.75 C-4.21816574 -2.55025405 -4.21816574 -2.55025405 0 0 Z " fill="#0C0C0C" transform="translate(72.89453125,11.75)"/>
<path d="M0 0 C5.89578438 0.86986983 9.47956705 4.65675762 13.8125 8.5625 C10.13313279 11.01541148 7.19306305 12.23807385 2.8125 11.5625 C-1.21408589 9.32138706 -4.81540166 6.70524606 -8.1875 3.5625 C-8.1875 2.9025 -8.1875 2.2425 -8.1875 1.5625 C-5.48073761 0.90631518 -2.74262622 0.48399286 0 0 Z " fill="#0D0D0D" transform="translate(90.1875,5.4375)"/>
<path d="M0 0 C1.4783226 2.95664519 1.06032783 5.74229737 1 9 C1.763125 9.061875 2.52625 9.12375 3.3125 9.1875 C6 10 6 10 7.875 12.4375 C8.24625 13.283125 8.6175 14.12875 9 15 C8.67 15.66 8.34 16.32 8 17 C7.34773438 16.79503906 6.69546875 16.59007813 6.0234375 16.37890625 C1.36525534 14.94297694 -3.15149758 13.63796084 -8 13 C-7.33333333 10.33333333 -6.66666667 7.66666667 -6 5 C-8.64 5 -11.28 5 -14 5 C-14 4.67 -14 4.34 -14 4 C-9.38 2.68 -4.76 1.36 0 0 Z " fill="#1D86FA" transform="translate(76,68)"/>
<path d="M0 0 C1.8125 0.5 1.8125 0.5 4 2 C5.26152609 4.5863924 6.15643045 7.25200829 7 10 C7.77085938 9.98839844 8.54171875 9.97679688 9.3359375 9.96484375 C10.33882812 9.95582031 11.34171875 9.94679688 12.375 9.9375 C13.37273437 9.92589844 14.37046875 9.91429688 15.3984375 9.90234375 C18 10 18 10 20 11 C20 10.34 20 9.68 20 9 C20.66 9 21.32 9 22 9 C22 9.66 22 10.32 22 11 C25.00384054 10.3045656 25.00384054 10.3045656 28 9 C28.73323796 6.98491642 28.73323796 6.98491642 29 5 C29.99 4.67 30.98 4.34 32 4 C30.79131278 8.43185313 29.816622 11.32894908 26 14 C22.61274923 14.37738601 19.32540174 14.09903895 15.9375 13.8125 C15.02677734 13.75513672 14.11605469 13.69777344 13.17773438 13.63867188 C9.56241479 13.39090126 6.45287797 13.15095932 3 12 C1 9 1 9 1 6 C0.34 6 -0.32 6 -1 6 C-1.042721 4.33388095 -1.04063832 2.66617115 -1 1 C-0.67 0.67 -0.34 0.34 0 0 Z " fill="#0031C8" transform="translate(72,85)"/>
<path d="M0 0 C0.89203125 0.00902344 1.7840625 0.01804688 2.703125 0.02734375 C3.37859375 0.03894531 4.0540625 0.05054688 4.75 0.0625 C4.75 1.0525 4.75 2.0425 4.75 3.0625 C5.41 3.0625 6.07 3.0625 6.75 3.0625 C6.39393309 5.64398508 5.91671807 6.88295747 4.125 8.8125 C0.88365978 10.51846853 -1.64054005 10.3298674 -5.25 10.0625 C-7.25 9.0625 -7.25 9.0625 -7.8828125 7.21484375 C-8.04523437 6.48394531 -8.20765625 5.75304688 -8.375 5 C-8.54257813 4.26652344 -8.71015625 3.53304687 -8.8828125 2.77734375 C-9.00398437 2.21144531 -9.12515625 1.64554688 -9.25 1.0625 C-6.09493858 0.12630187 -3.28413498 -0.0432123 0 0 Z " fill="#002385" transform="translate(19.25,50.9375)"/>
<path d="M0 0 C1.07680678 2.15361355 1.2580817 3.68219676 1.5 6.0625 C1.56192684 9.76605942 1.56192684 9.76605942 3 11 C4.59513893 11.12272849 6.19554932 11.17781043 7.79516602 11.20532227 C9.32664024 11.2352401 9.32664024 11.2352401 10.88905334 11.26576233 C12.55465553 11.29083107 12.55465553 11.29083107 14.25390625 11.31640625 C15.38448959 11.33718735 16.51507294 11.35796844 17.67991638 11.37937927 C21.30737985 11.44499797 24.93491833 11.50381677 28.5625 11.5625 C31.01498186 11.60567351 33.467456 11.6492874 35.91992188 11.69335938 C41.94653427 11.80069184 47.97322201 11.9024349 54 12 C54.495 12.99 54.495 12.99 55 14 C37.18 14 19.36 14 1 14 C-1.34285714 5.8 -1.34285714 5.8 -1 1 C-0.67 0.67 -0.34 0.34 0 0 Z " fill="#001379" transform="translate(16,85)"/>
<path d="M0 0 C1.14023098 3.42069294 1.12770913 4.61687262 0 8 C-2.25 10.5 -2.25 10.5 -5 13 C-5.86625 13.86625 -6.7325 14.7325 -7.625 15.625 C-8.40875 16.40875 -9.1925 17.1925 -10 18 C-10.45375 18.598125 -10.9075 19.19625 -11.375 19.8125 C-14.05185981 21.76866678 -16.80829261 21.18066268 -20 21 C-17.702779 19.25728062 -15.40133271 17.60088848 -13 16 C-12.690625 14.906875 -12.38125 13.81375 -12.0625 12.6875 C-10.74604802 8.11863724 -8.97878483 5.25922671 -4.9375 2.6875 C-3 2 -3 2 0 2 C0 1.34 0 0.68 0 0 Z " fill="#00044C" transform="translate(123,77)"/>
<path d="M0 0 C0.45890625 0.64453125 0.9178125 1.2890625 1.390625 1.953125 C5.27378028 4.99919291 8.94176379 4.67187504 13.75 4.75 C14.63816406 4.77964844 15.52632812 4.80929688 16.44140625 4.83984375 C18.62769449 4.91036918 20.81292768 4.96314637 23 5 C23 5.99 23 6.98 23 8 C22.10796875 8.04898438 21.2159375 8.09796875 20.296875 8.1484375 C19.12640625 8.22320312 17.9559375 8.29796875 16.75 8.375 C15.00976562 8.47941406 15.00976562 8.47941406 13.234375 8.5859375 C9.06650162 9.11950583 6.94883392 10.05116608 4 13 C3.525625 12.030625 3.05125 11.06125 2.5625 10.0625 C1.29806053 7.19522563 1.29806053 7.19522563 0 6 C-2.32817964 5.63239269 -4.6618385 5.29758419 -7 5 C-7.33 4.01 -7.66 3.02 -8 2 C-5.36 2 -2.72 2 0 2 C0 1.34 0 0.68 0 0 Z " fill="#002786" transform="translate(13,72)"/>
<path d="M0 0 C2.03593464 1.48327287 4.02066547 2.96780209 5.91796875 4.625 C5.91796875 4.955 5.91796875 5.285 5.91796875 5.625 C-5.18943256 8.43571436 -5.18943256 8.43571436 -9.7265625 6.4921875 C-11.75008602 4.98274834 -13.48197711 3.57793617 -15.08203125 1.625 C-15.08203125 0.965 -15.08203125 0.305 -15.08203125 -0.375 C-4.97673104 -3.28669667 -4.97673104 -3.28669667 0 0 Z " fill="#EDEDED" transform="translate(111.08203125,7.375)"/>
<path d="M0 0 C4.29 0 8.58 0 13 0 C7.25 6.75 7.25 6.75 5 9 C2.3984375 9.1953125 2.3984375 9.1953125 -0.625 9.125 C-2.12933594 9.09792969 -2.12933594 9.09792969 -3.6640625 9.0703125 C-4.43492188 9.04710937 -5.20578125 9.02390625 -6 9 C-4.265625 4.1640625 -4.265625 4.1640625 -1.875 2.6875 C-1.25625 2.460625 -0.6375 2.23375 0 2 C0 1.34 0 0.68 0 0 Z " fill="#E2F0F1" transform="translate(32,30)"/>
<path d="M0 0 C1.32 0 2.64 0 4 0 C4 0.66 4 1.32 4 2 C4.53625 2.12375 5.0725 2.2475 5.625 2.375 C8.4638286 3.12206016 11.22223202 4.05303364 14 5 C14 5.66 14 6.32 14 7 C15.98 7.66 17.96 8.32 20 9 C19.59834879 14.623117 17.76579946 17.04591056 14 21 C13.67 21 13.34 21 13 21 C13.05800781 20.24074219 13.11601563 19.48148438 13.17578125 18.69921875 C13.31058755 15.72962863 13.37110647 12.9513879 13 10 C10.66250834 7.84397306 10.66250834 7.84397306 8 7 C8 6.34 8 5.68 8 5 C3.545 4.01 3.545 4.01 -1 3 C-0.67 2.01 -0.34 1.02 0 0 Z " fill="#1357C3" transform="translate(101,56)"/>
<path d="M0 0 C2.31 0 4.62 0 7 0 C6.47731534 2.76276177 5.89130413 5.3260876 5 8 C6.051875 8.03867188 6.051875 8.03867188 7.125 8.078125 C13.42209177 8.45458157 18.85663662 9.11524789 24 13 C25.66971172 14.93459516 26.76590467 16.7374919 28 19 C25.53199953 17.84826645 23.95216435 16.95216435 22 15 C19.42938689 14.35232207 19.42938689 14.35232207 17 14 C17 13.34 17 12.68 17 12 C15.4840625 12.3403125 15.4840625 12.3403125 13.9375 12.6875 C9.1555952 13.06701625 7.19498514 12.14029854 3 10 C3.33 7.03 3.66 4.06 4 1 C2.68 0.67 1.36 0.34 0 0 Z " fill="#055EE6" transform="translate(63,73)"/>
<path d="M0 0 C2.97 0 5.94 0 9 0 C9.66 1.98 10.32 3.96 11 6 C3.08 6.495 3.08 6.495 -5 7 C-4.01 8.485 -4.01 8.485 -3 10 C-3.375 12.1875 -3.375 12.1875 -4 14 C-5.32 13.67 -6.64 13.34 -8 13 C-7.01 12.34 -6.02 11.68 -5 11 C-5.66 9.35 -6.32 7.7 -7 6 C-6.34 6 -5.68 6 -5 6 C-5 5.34 -5 4.68 -5 4 C-3.35 3.34 -1.7 2.68 0 2 C0 1.34 0 0.68 0 0 Z " fill="#375995" transform="translate(13,45)"/>
<path d="M0 0 C0.66 0.33 1.32 0.66 2 1 C1.78998975 4.23144803 1.39286 7.05719052 0 10 C-2.32687125 11.32346209 -4.39381943 11.901065 -7.00390625 12.46484375 C-7.66261719 12.64144531 -8.32132813 12.81804687 -9 13 C-9.33 13.66 -9.66 14.32 -10 15 C-12.28515625 15.4140625 -12.28515625 15.4140625 -15.0625 15.625 C-15.98160156 15.69976562 -16.90070313 15.77453125 -17.84765625 15.8515625 C-18.91306641 15.92503906 -18.91306641 15.92503906 -20 16 C-20.33 16.99 -20.66 17.98 -21 19 C-20.125 14.125 -20.125 14.125 -19 13 C-17.7625 12.938125 -16.525 12.87625 -15.25 12.8125 C-11.55611564 12.39767876 -11.10125488 12.10360965 -8.3125 9.25 C-7.1678125 7.64125 -7.1678125 7.64125 -6 6 C-4.35216394 4.31471312 -2.68997323 2.64302953 -1 1 C-0.67 0.67 -0.34 0.34 0 0 Z " fill="#00002D" transform="translate(121,85)"/>
<path d="M0 0 C-1.97877362 0.91751482 -3.95804217 1.83396224 -5.9375 2.75 C-7.72027344 3.57564453 -7.72027344 3.57564453 -9.5390625 4.41796875 C-12.28322935 5.67235653 -15.03742728 6.87944268 -17.8125 8.0625 C-20.84002927 9.3790586 -23.50147859 10.92277068 -26.25 12.75 C-29.28376959 14.73408531 -31.28543405 15.58040093 -35 15 C-28.92779883 8.42015501 -20.2301666 5.03924453 -12 2 C-11.25234375 1.68804687 -10.5046875 1.37609375 -9.734375 1.0546875 C-6.01609805 -0.47393747 -3.83523193 -1.24180417 0 0 Z " fill="#55C2FF" transform="translate(97,57)"/>
<path d="M0 0 C11.22 0.33 22.44 0.66 34 1 C34 1.66 34 2.32 34 3 C30.04 3 26.08 3 22 3 C22 3.99 22 4.98 22 6 C21.34 6 20.68 6 20 6 C20 5.01 20 4.02 20 3 C13.73 3 7.46 3 1 3 C0.67 2.01 0.34 1.02 0 0 Z " fill="#00319B" transform="translate(16,74)"/>
<path d="M0 0 C0.98613281 0.00322266 1.97226563 0.00644531 2.98828125 0.00976562 C4.02082031 0.01814453 5.05335937 0.02652344 6.1171875 0.03515625 C7.67759766 0.04192383 7.67759766 0.04192383 9.26953125 0.04882812 C11.84380712 0.06063673 14.41796896 0.0771055 16.9921875 0.09765625 C16.0021875 0.59265625 16.0021875 0.59265625 14.9921875 1.09765625 C14.9921875 1.75765625 14.9921875 2.41765625 14.9921875 3.09765625 C14.0434375 3.07703125 13.0946875 3.05640625 12.1171875 3.03515625 C9.08552467 2.87213799 9.08552467 2.87213799 6.9921875 4.09765625 C4.7878235 4.32715944 2.57826577 4.50841558 0.3671875 4.66015625 C-0.82132812 4.74394531 -2.00984375 4.82773437 -3.234375 4.9140625 C-4.60722656 5.00494141 -4.60722656 5.00494141 -6.0078125 5.09765625 C-5.6778125 4.43765625 -5.3478125 3.77765625 -5.0078125 3.09765625 C-5.6678125 2.43765625 -6.3278125 1.77765625 -7.0078125 1.09765625 C-4.50284246 -0.15482877 -2.79927976 -0.01608781 0 0 Z " fill="#1C7FFC" transform="translate(84.0078125,53.90234375)"/>
<path d="M0 0 C-1.15173355 2.46800047 -2.04783565 4.04783565 -4 6 C-6.8203125 6.1953125 -6.8203125 6.1953125 -10.125 6.125 C-11.22070312 6.10695313 -12.31640625 6.08890625 -13.4453125 6.0703125 C-14.28835937 6.04710937 -15.13140625 6.02390625 -16 6 C-11.78857098 -0.97064114 -7.76957617 -0.73477603 0 0 Z " fill="#0F0F0F" transform="translate(104,30)"/>
<path d="M0 0 C-1.15173355 2.46800047 -2.04783565 4.04783565 -4 6 C-6.8203125 6.1953125 -6.8203125 6.1953125 -10.125 6.125 C-11.22070312 6.10695313 -12.31640625 6.08890625 -13.4453125 6.0703125 C-14.28835937 6.04710937 -15.13140625 6.02390625 -16 6 C-11.78857098 -0.97064114 -7.76957617 -0.73477603 0 0 Z " fill="#0F0F0F" transform="translate(80,30)"/>
<path d="M0 0 C0.66 0 1.32 0 2 0 C2 0.99 2 1.98 2 3 C3.67956787 3.03758423 3.67956787 3.03758423 5.39306641 3.07592773 C9.5640728 3.17040014 13.73492807 3.2705222 17.90576172 3.37231445 C19.70780898 3.41551311 21.5098932 3.45719824 23.31201172 3.49731445 C25.90864175 3.55538376 28.5050883 3.6189708 31.1015625 3.68359375 C31.9017984 3.70030624 32.7020343 3.71701874 33.52651978 3.73423767 C37.7753553 3.8456937 41.81448075 4.17753083 46 5 C46.495 7.475 46.495 7.475 47 10 C45.87658203 9.35256836 44.75316406 8.70513672 43.59570312 8.03808594 C38.83592283 5.66812179 34.71932334 5.39836322 29.46875 5.390625 C28.59222778 5.37408875 27.71570557 5.35755249 26.81262207 5.34051514 C24.04167465 5.29233497 21.27127477 5.27073153 18.5 5.25 C16.60934789 5.22181516 14.71872096 5.19188424 12.828125 5.16015625 C8.21879515 5.08658445 3.60976392 5.03682732 -1 5 C-1 2 -1 2 0 0 Z " fill="#004BBB" transform="translate(23,80)"/>
<path d="M0 0 C2.97 0 5.94 0 9 0 C9.25 5.625 9.25 5.625 7 9 C3.875 9.1875 3.875 9.1875 1 9 C0.67 6.03 0.34 3.06 0 0 Z " fill="#00001D" transform="translate(5,81)"/>
<path d="M0 0 C4.875 0.875 4.875 0.875 6 2 C7.62579218 2.12281952 9.25677004 2.17782504 10.88696289 2.20532227 C11.92796646 2.22526749 12.96897003 2.24521271 14.04151917 2.26576233 C15.1737944 2.28247482 16.30606964 2.29918732 17.47265625 2.31640625 C18.62543564 2.33718735 19.77821503 2.35796844 20.96592712 2.37937927 C24.66472157 2.44499964 28.36358959 2.50381755 32.0625 2.5625 C34.56315879 2.60567335 37.06381001 2.64928724 39.56445312 2.69335938 C45.70955662 2.80069368 51.85473404 2.90243643 58 3 C56 5 56 5 53.70944214 5.20254517 C52.75457916 5.18033905 51.79971619 5.15813293 50.81591797 5.13525391 C49.73494843 5.11508209 48.65397888 5.09491028 47.54025269 5.0741272 C46.36939117 5.04193085 45.19852966 5.0097345 43.9921875 4.9765625 C42.79643097 4.95153656 41.60067444 4.92651062 40.36868286 4.90072632 C36.53717478 4.81834006 32.7061679 4.72182171 28.875 4.625 C26.28257278 4.56677955 23.69012479 4.50947589 21.09765625 4.453125 C14.73149144 4.31273349 8.36568206 4.16072787 2 4 C1.34 2.68 0.68 1.36 0 0 Z " fill="#3F6CAF" transform="translate(22,46)"/>
<path d="M0 0 C1.75437378 0.06465454 1.75437378 0.06465454 3.54418945 0.13061523 C8.7254039 0.34995169 13.70267126 0.69680215 18.8125 1.625 C18.1525 2.615 17.4925 3.605 16.8125 4.625 C15.4925 4.625 14.1725 4.625 12.8125 4.625 C12.3175 3.635 12.3175 3.635 11.8125 2.625 C-2.3775 2.295 -16.5675 1.965 -31.1875 1.625 C-31.1875 1.295 -31.1875 0.965 -31.1875 0.625 C-20.75482685 -0.33145099 -10.47026678 -0.39384154 0 0 Z " fill="#A6C6F4" transform="translate(100.1875,39.375)"/>
<path d="M0 0 C7.59 0 15.18 0 23 0 C22.67 0.99 22.34 1.98 22 3 C25.3 3 28.6 3 32 3 C32 3.33 32 3.66 32 4 C29.54159395 4.02691685 27.08348118 4.04679802 24.625 4.0625 C23.92632813 4.07087891 23.22765625 4.07925781 22.5078125 4.08789062 C17.2265625 4.11328125 17.2265625 4.11328125 15 3 C12.45384991 2.76827173 9.92603775 2.58105471 7.375 2.4375 C6.66859375 2.39431641 5.9621875 2.35113281 5.234375 2.30664062 C3.48981463 2.20055249 1.74493303 2.09977111 0 2 C0 1.34 0 0.68 0 0 Z " fill="#BEDCFE" transform="translate(4,36)"/>
<path d="M0 0 C0 2 0 2 -1.8125 4.125 C-6.45652869 6.85678158 -10.73565197 6.33190285 -16 6 C-11.78857098 -0.97064114 -7.76957617 -0.73477603 0 0 Z " fill="#0A0A0A" transform="translate(56,30)"/>
<path d="M0 0 C5.28 0 10.56 0 16 0 C16.33 1.32 16.66 2.64 17 4 C11.39 4 5.78 4 0 4 C0 2.68 0 1.36 0 0 Z " fill="#237CE9" transform="translate(41,77)"/>
<path d="M0 0 C3.96 0 7.92 0 12 0 C12.66 1.65 13.32 3.3 14 5 C3.44191344 5.18451025 3.44191344 5.18451025 -1 4 C-0.67 2.68 -0.34 1.36 0 0 Z " fill="#B1F4FF" transform="translate(85,73)"/>
<path d="M0 0 C-2.70118924 3.71413521 -6.71824655 4.2616389 -11 5 C-14.32772879 5.24545258 -17.63347575 5.23455147 -20.96875 5.1953125 C-22.35012146 5.19106766 -22.35012146 5.19106766 -23.75939941 5.18673706 C-26.67307052 5.17562775 -29.58642331 5.15054078 -32.5 5.125 C-34.4869747 5.11495823 -36.47395426 5.10583448 -38.4609375 5.09765625 C-43.30741252 5.07571879 -48.15365247 5.04125361 -53 5 C-53 4.67 -53 4.34 -53 4 C-51.18411377 3.97812622 -51.18411377 3.97812622 -49.33154297 3.95581055 C-44.82490019 3.89768315 -40.31874951 3.8204511 -35.8125 3.73754883 C-33.86499032 3.70436735 -31.91738603 3.67631443 -29.96972656 3.65356445 C-27.16430485 3.61989366 -24.35974472 3.56757173 -21.5546875 3.51171875 C-20.25590164 3.50213387 -20.25590164 3.50213387 -18.93087769 3.49235535 C-11.99462421 3.32500077 -6.82629839 -0.48759274 0 0 Z " fill="#0772FE" transform="translate(81,56)"/>
<path d="M0 0 C0 2.64 0 5.28 0 8 C-3.08809695 9.76462683 -4.23312136 10 -8 10 C-8.125 6.625 -8.125 6.625 -8 3 C-5.61366383 0.61366383 -3.39611399 0 0 0 Z " fill="#6883BB" transform="translate(126,41)"/>
<path d="M0 0 C4.29 0 8.58 0 13 0 C13 1.98 13 3.96 13 6 C11.35 6 9.7 6 8 6 C8 5.34 8 4.68 8 4 C4.7 4 1.4 4 -2 4 C-1.34 2.68 -0.68 1.36 0 0 Z " fill="#969696" transform="translate(104,30)"/>
<path d="M0 0 C1.75183594 0.00386719 1.75183594 0.00386719 3.5390625 0.0078125 C4.70179687 0.00523438 5.86453125 0.00265625 7.0625 0 C10.1640625 0.1328125 10.1640625 0.1328125 13.1640625 1.1328125 C14.82768667 1.48101291 16.49401421 1.81685742 18.1640625 2.1328125 C17.8340625 2.7928125 17.5040625 3.4528125 17.1640625 4.1328125 C8.2540625 3.8028125 -0.6559375 3.4728125 -9.8359375 3.1328125 C-9.5059375 2.4728125 -9.1759375 1.8128125 -8.8359375 1.1328125 C-7.629375 1.16375 -7.629375 1.16375 -6.3984375 1.1953125 C-3.30111004 1.11976793 -3.18765972 0.14928434 0 0 Z " fill="#4779C6" transform="translate(93.8359375,46.8671875)"/>
<path d="M0 0 C0.4140625 2.28515625 0.4140625 2.28515625 0.625 5.0625 C0.69976562 5.98160156 0.77453125 6.90070312 0.8515625 7.84765625 C0.90054688 8.55792969 0.94953125 9.26820312 1 10 C-0.81618856 8.88096454 -2.62785526 7.75458716 -4.4375 6.625 C-5.44683594 5.99851562 -6.45617187 5.37203125 -7.49609375 4.7265625 C-10 3 -10 3 -11 1 C-9.5437328 0.63743142 -8.08488815 0.28520207 -6.625 -0.0625 C-5.40683594 -0.35833984 -5.40683594 -0.35833984 -4.1640625 -0.66015625 C-2 -1 -2 -1 0 0 Z " fill="#151515" transform="translate(116,2)"/>
<path d="M0 0 C0.66 0.33 1.32 0.66 2 1 C1.525625 1.37125 1.05125 1.7425 0.5625 2.125 C-1.58573297 4.70287957 -1.79689217 6.68257217 -2 10 C-1.17657468 12.31980946 -1.17657468 12.31980946 0 14 C-1.98 14.66 -3.96 15.32 -6 16 C-6.99455488 11.13532941 -7.52756022 8.05512044 -5.25 3.5 C-3 1 -3 1 0 0 Z " fill="#5697EC" transform="translate(9,43)"/>
<path d="M0 0 C5.875 3.75 5.875 3.75 7 6 C-2.38857006 8.66547107 -2.38857006 8.66547107 -6.2890625 7.0546875 C-8.1875 5.6875 -8.1875 5.6875 -11 3 C-11 2.67 -11 2.34 -11 2 C-7.37 2 -3.74 2 0 2 C0 1.34 0 0.68 0 0 Z " fill="#272727" transform="translate(97,9)"/>
<path d="M0 0 C0.66 0 1.32 0 2 0 C1.67 2.97 1.34 5.94 1 9 C-8.57 8.67 -18.14 8.34 -28 8 C-26.68 6.35 -25.36 4.7 -24 3 C-24 4.32 -24 5.64 -24 7 C-16.08 6.505 -16.08 6.505 -8 6 C-8 5.01 -8 4.02 -8 3 C-7.34 3 -6.68 3 -6 3 C-6 3.99 -6 4.98 -6 6 C-4.02 6 -2.04 6 0 6 C0 4.02 0 2.04 0 0 Z " fill="#0859D1" transform="translate(65,74)"/>
<path d="M0 0 C0.66 0.33 1.32 0.66 2 1 C0 3 0 3 -3.0625 3.5 C-4.031875 3.665 -5.00125 3.83 -6 4 C-6.33 4.66 -6.66 5.32 -7 6 C-5.88625 6.144375 -4.7725 6.28875 -3.625 6.4375 C0 7 0 7 2 8 C2 8.66 2 9.32 2 10 C3.32 10.66 4.64 11.32 6 12 C3.49890807 11.58315135 1.37388004 11.19940269 -0.875 10 C-3.24409729 8.88513069 -5.15096669 8.60432647 -7.75 8.375 C-8.54921875 8.30023438 -9.3484375 8.22546875 -10.171875 8.1484375 C-11.07679687 8.07496094 -11.07679687 8.07496094 -12 8 C-12 7.01 -12 6.02 -12 5 C-10.68 4.67 -9.36 4.34 -8 4 C-8 3.34 -8 2.68 -8 2 C-6.2984375 1.7834375 -6.2984375 1.7834375 -4.5625 1.5625 C-1.19222799 1.38828522 -1.19222799 1.38828522 0 0 Z " fill="#0761F8" transform="translate(107,53)"/>
<path d="M0 0 C5.61 0.33 11.22 0.66 17 1 C17 2.32 17 3.64 17 5 C5.91469562 5.39433889 5.91469562 5.39433889 1 3 C0.67 2.01 0.34 1.02 0 0 Z " fill="#69A4ED" transform="translate(84,82)"/>
<path d="M0 0 C0.66 0.33 1.32 0.66 2 1 C-3.91684902 8.84245077 -3.91684902 8.84245077 -8.4375 9.5 C-9.283125 9.335 -10.12875 9.17 -11 9 C-11 8.34 -11 7.68 -11 7 C-14.96 7 -18.92 7 -23 7 C-23.33 6.34 -23.66 5.68 -24 5 C-22.02966797 5.08701172 -22.02966797 5.08701172 -20.01953125 5.17578125 C-18.28388977 5.22269048 -16.54820977 5.26818939 -14.8125 5.3125 C-13.51602539 5.3753418 -13.51602539 5.3753418 -12.19335938 5.43945312 C-7.49307938 5.61956379 -7.49307938 5.61956379 -3.27099609 3.86474609 C-1.71696695 2.37287916 -1.71696695 2.37287916 0 0 Z " fill="#0014A1" transform="translate(103,93)"/>
<path d="M0 0 C1.45823212 -0.0270043 2.91660675 -0.04639787 4.375 -0.0625 C5.18710937 -0.07410156 5.99921875 -0.08570313 6.8359375 -0.09765625 C9 0 9 0 11 1 C10.125 4.875 10.125 4.875 9 6 C4.96839809 6.26293056 3.44107266 6.29404844 0 4 C0 2.68 0 1.36 0 0 Z " fill="#00126A" transform="translate(13,53)"/>
<path d="M0 0 C0.66 0.33 1.32 0.66 2 1 C1.67 1.33 1.34 1.66 1 2 C1.66386719 2.12117188 2.32773438 2.24234375 3.01171875 2.3671875 C7.53424459 3.22547708 11.79938524 4.03971311 16 6 C15.67 6.66 15.34 7.32 15 8 C12.39533457 7.69127671 9.79132309 7.37818277 7.1875 7.0625 C6.44951172 6.97548828 5.71152344 6.88847656 4.95117188 6.79882812 C1.83266879 6.41783454 -1.01108122 5.99630626 -4 5 C-4 4.34 -4 3.68 -4 3 C-2 1.375 -2 1.375 0 0 Z " fill="#002696" transform="translate(109,53)"/>
<path d="M0 0 C1.17046875 0.03609375 2.3409375 0.0721875 3.546875 0.109375 C4.43890625 0.15578125 5.3309375 0.2021875 6.25 0.25 C6.25 0.91 6.25 1.57 6.25 2.25 C5.0434375 2.7140625 5.0434375 2.7140625 3.8125 3.1875 C1.35919595 4.01335345 1.35919595 4.01335345 0.25 5.25 C-1.60772162 5.16015699 -3.46247985 5.00388139 -5.3125 4.8125 C-6.83037109 4.65974609 -6.83037109 4.65974609 -8.37890625 4.50390625 C-9.55259766 4.37822266 -9.55259766 4.37822266 -10.75 4.25 C-7.43152371 0.07726249 -5.22729025 -0.20909161 0 0 Z " fill="#BAD7FD" transform="translate(118.75,35.75)"/>
<path d="M0 0 C4.29 0 8.58 0 13 0 C11.34563316 2.20582245 10.2927013 3.55438082 8 5 C4.62529807 5.45676698 1.38612312 5.25826363 -2 5 C-2.99 5 -3.98 5 -5 5 C-3.625 3.5 -3.625 3.5 -2 2 C-1.34 2 -0.68 2 0 2 C0 1.34 0 0.68 0 0 Z " fill="#B7B7B7" transform="translate(32,30)"/>
<path d="M0 0 C-3.4352048 2.29013653 -4.985331 2.17842973 -9 2 C-8.67 2.99 -8.34 3.98 -8 5 C-10.10018513 5.41644184 -12.20541042 5.80753303 -14.3125 6.1875 C-15.48425781 6.40792969 -16.65601563 6.62835937 -17.86328125 6.85546875 C-21 7 -21 7 -22.91796875 5.55078125 C-23.27503906 5.03902344 -23.63210937 4.52726563 -24 4 C-8.08505639 -0.20394737 -8.08505639 -0.20394737 0 0 Z " fill="#C7C7C7" transform="translate(68,9)"/>
<path d="M0 0 C4.67802059 0.27517768 6.74638753 2.33193886 9.86328125 5.52734375 C11 7 11 7 11 9 C6.545 8.01 6.545 8.01 2 7 C2 6.01 2 5.02 2 4 C1.01 3.67 0.02 3.34 -1 3 C-0.67 2.01 -0.34 1.02 0 0 Z " fill="#444444" transform="translate(14,23)"/>
<path d="M0 0 C0.33 0.99 0.66 1.98 1 3 C2.051875 3.03867188 2.051875 3.03867188 3.125 3.078125 C9.42209177 3.45458157 14.85663662 4.11524789 20 8 C21.66971172 9.93459516 22.76590467 11.7374919 24 14 C21.17817929 12.80615278 19.61159279 11.62084058 17.375 9.4375 C13.97743776 6.47330029 10.75768835 6.36821819 6.3671875 6.23828125 C3.82128225 5.98201026 2.19916887 5.27186956 0 4 C0 2.68 0 1.36 0 0 Z " fill="#116BE9" transform="translate(67,78)"/>
<path d="M0 0 C4.29 0 8.58 0 13 0 C11.125 2.5625 11.125 2.5625 8 5 C4.57256278 5.1465164 1.35858814 4.65867457 -2 4 C-1.34 2.68 -0.68 1.36 0 0 Z " fill="#C0C0C0" transform="translate(80,30)"/>
<path d="M0 0 C2.6875 1.4375 2.6875 1.4375 5 3 C1.12202366 5.58531756 -2.3393725 6.37546211 -7 6 C-10.0625 3.5625 -10.0625 3.5625 -12 1 C-11.07767578 1.01740234 -11.07767578 1.01740234 -10.13671875 1.03515625 C-8.92435547 1.04869141 -8.92435547 1.04869141 -7.6875 1.0625 C-6.88699219 1.07410156 -6.08648437 1.08570312 -5.26171875 1.09765625 C-2.83138666 1.09657855 -2.83138666 1.09657855 0 0 Z " fill="#272727" transform="translate(76,15)"/>
<path d="M0 0 C0.98291016 0.00644531 1.96582031 0.01289062 2.97851562 0.01953125 C4.00267578 0.03628906 5.02683594 0.05304687 6.08203125 0.0703125 C7.11779297 0.07933594 8.15355469 0.08835938 9.22070312 0.09765625 C11.7788781 0.1212339 14.33658873 0.1541422 16.89453125 0.1953125 C15.71362305 1.69067383 15.71362305 1.69067383 13.89453125 3.1953125 C11.53442383 3.4440918 11.53442383 3.4440918 8.7890625 3.26953125 C7.80615234 3.21474609 6.82324219 3.15996094 5.81054688 3.10351562 C4.78638672 3.03068359 3.76222656 2.95785156 2.70703125 2.8828125 C1.67126953 2.82158203 0.63550781 2.76035156 -0.43164062 2.69726562 C-2.99078832 2.54395263 -5.5481392 2.3761018 -8.10546875 2.1953125 C-4.80258539 -0.00660974 -3.83084148 -0.04428718 0 0 Z " fill="#357FEF" transform="translate(92.10546875,51.8046875)"/>
<path d="M0 0 C2.40928735 0.96371494 3.76007009 1.65210163 5.25 3.8125 C6.11081611 6.32321365 6.14647297 8.36348649 6 11 C4.68 10.67 3.36 10.34 2 10 C1.67 8.68 1.34 7.36 1 6 C0.34 6 -0.32 6 -1 6 C-1.042721 4.33388095 -1.04063832 2.66617115 -1 1 C-0.67 0.67 -0.34 0.34 0 0 Z " fill="#0040C9" transform="translate(72,85)"/>
<path d="M0 0 C1.4783226 2.95664519 1.06032783 5.74229737 1 9 C2.65 9.33 4.3 9.66 6 10 C6.33 11.32 6.66 12.64 7 14 C3.7 13.34 0.4 12.68 -3 12 C-2.88648483 10.18674449 -2.75887039 8.37436643 -2.625 6.5625 C-2.55539063 5.55316406 -2.48578125 4.54382813 -2.4140625 3.50390625 C-2.27742188 2.67761719 -2.14078125 1.85132812 -2 1 C-1.34 0.67 -0.68 0.34 0 0 Z " fill="#1F93FE" transform="translate(76,68)"/>
<path d="M0 0 C0.66 0.66 1.32 1.32 2 2 C-0.64 2.33 -3.28 2.66 -6 3 C-6.33 3.99 -6.66 4.98 -7 6 C-8.98 4.68 -10.96 3.36 -13 2 C-9.39381767 -1.60618233 -4.69394861 -1.43426208 0 0 Z " fill="#E2E2E2" transform="translate(34,16)"/>
<path d="M0 0 C7.41035857 -0.4940239 7.41035857 -0.4940239 10.3125 1.9375 C11.1478125 2.9584375 11.1478125 2.9584375 12 4 C12.99 4.33 13.98 4.66 15 5 C14.42655063 7.86724686 14.1385485 8.8614515 12 11 C11.525625 10.030625 11.05125 9.06125 10.5625 8.0625 C9.29806053 5.19522563 9.29806053 5.19522563 8 4 C5.67182036 3.63239269 3.3381615 3.29758419 1 3 C0.67 2.01 0.34 1.02 0 0 Z " fill="#002465" transform="translate(5,74)"/>
<path d="M0 0 C4.29 0 8.58 0 13 0 C9 4 9 4 6.5625 4.3203125 C5.2940625 4.22363281 5.2940625 4.22363281 4 4.125 C0.30911605 3.86618802 -1.79604716 4.08652816 -5 6 C-3.625 4 -3.625 4 -2 2 C-1.34 2 -0.68 2 0 2 C0 1.34 0 0.68 0 0 Z " fill="#B9B9B9" transform="translate(56,30)"/>
<path d="M0 0 C0 0.66 0 1.32 0 2 C-1.64453125 3.078125 -1.64453125 3.078125 -3.8125 4.25 C-7.7189196 6.56619569 -9.38541083 8.6607916 -11 13 C-11.66 13 -12.32 13 -13 13 C-13.33 13.99 -13.66 14.98 -14 16 C-13.43128248 12.17469763 -12.37470201 9.53788527 -10.25 6.3125 C-9.76015625 5.54550781 -9.2703125 4.77851562 -8.765625 3.98828125 C-6.31468986 1.22826801 -3.70933952 0 0 0 Z " fill="#045CDA" transform="translate(114,77)"/>
<path d="M0 0 C0.33 0.99 0.66 1.98 1 3 C-0.51639033 6.03278067 -2.98942599 6.61513595 -6 8 C-6.99 8.33 -7.98 8.66 -9 9 C-9.3721042 10.32303717 -9.70630173 11.65737935 -10 13 C-10.99 13.495 -10.99 13.495 -12 14 C-11.49607061 9.59061785 -10.0379639 7.21156184 -7 4 C-4.31591712 2.29194726 -3.23830467 2 0 2 C0 1.34 0 0.68 0 0 Z " fill="#001A69" transform="translate(123,77)"/>
<path d="M0 0 C0.33 0 0.66 0 1 0 C1 1.65 1 3.3 1 5 C-0.134375 5.433125 -1.26875 5.86625 -2.4375 6.3125 C-3.613125 6.869375 -4.78875 7.42625 -6 8 C-6.33 8.99 -6.66 9.98 -7 11 C-9.0625 11.6875 -9.0625 11.6875 -11 12 C-11 10.68 -11 9.36 -11 8 C-10.401875 7.7525 -9.80375 7.505 -9.1875 7.25 C-6.86575942 6.1279694 -6.86575942 6.1279694 -5.5 3.875 C-5.005 3.25625 -4.51 2.6375 -4 2 C-2.68 2 -1.36 2 0 2 C0 1.34 0 0.68 0 0 Z " fill="#92ABDE" transform="translate(125,36)"/>
<path d="M0 0 C1.4540625 0.0309375 1.4540625 0.0309375 2.9375 0.0625 C3.2675 1.7125 3.5975 3.3625 3.9375 5.0625 C-0.5175 5.5575 -0.5175 5.5575 -5.0625 6.0625 C-3.98897059 0.08140756 -3.98897059 0.08140756 0 0 Z " fill="#05367B" transform="translate(9.0625,68.9375)"/>
<path d="M0 0 C-0.33 0.99 -0.66 1.98 -1 3 C-3.31074405 3.74118205 -5.64811553 4.40206327 -8 5 C-8.639375 5.350625 -9.27875 5.70125 -9.9375 6.0625 C-13.1803446 7.53652027 -16.4671855 7.64671855 -20 8 C-20 7.34 -20 6.68 -20 6 C-16.7 5.67 -13.4 5.34 -10 5 C-9.67 4.01 -9.34 3.02 -9 2 C-5.99208089 -0.04108797 -3.57804656 -0.19878036 0 0 Z " fill="#000012" transform="translate(121,95)"/>
<path d="M0 0 C1.98 1.32 3.96 2.64 6 4 C5.67 4.66 5.34 5.32 5 6 C2.93359375 6.4140625 2.93359375 6.4140625 0.4375 6.625 C-0.38878906 6.69976563 -1.21507812 6.77453125 -2.06640625 6.8515625 C-3.02353516 6.92503906 -3.02353516 6.92503906 -4 7 C-4.66 6.01 -5.32 5.02 -6 4 C-4.7934375 3.566875 -4.7934375 3.566875 -3.5625 3.125 C-0.8673532 2.26737432 -0.8673532 2.26737432 0 0 Z " fill="#191919" transform="translate(27,22)"/>
<path d="M0 0 C1.32 0 2.64 0 4 0 C4 0.66 4 1.32 4 2 C4.53625 2.12375 5.0725 2.2475 5.625 2.375 C8.4638286 3.12206016 11.22223202 4.05303364 14 5 C13.67 5.99 13.34 6.98 13 8 C11.35 7.67 9.7 7.34 8 7 C8 6.34 8 5.68 8 5 C3.545 4.01 3.545 4.01 -1 3 C-0.67 2.01 -0.34 1.02 0 0 Z " fill="#004ED9" transform="translate(101,56)"/>
<path d="M0 0 C0.66 0.33 1.32 0.66 2 1 C1.67 1.33 1.34 1.66 1 2 C5.62 2.99 10.24 3.98 15 5 C15 5.33 15 5.66 15 6 C8.73 5.67 2.46 5.34 -4 5 C-2 1 -2 1 0 0 Z " fill="#1993FF" transform="translate(90,59)"/>
<path d="M0 0 C1.21236328 0.04060547 1.21236328 0.04060547 2.44921875 0.08203125 C3.06410156 0.11683594 3.67898437 0.15164062 4.3125 0.1875 C4.6425 0.8475 4.9725 1.5075 5.3125 2.1875 C2.6725 2.1875 0.0325 2.1875 -2.6875 2.1875 C-2.6875 2.8475 -2.6875 3.5075 -2.6875 4.1875 C-3.491875 4.47625 -4.29625 4.765 -5.125 5.0625 C-7.8201468 5.92012568 -7.8201468 5.92012568 -8.6875 8.1875 C-7.89324492 2.31001244 -6.14505479 -0.2671763 0 0 Z " fill="#5E77A5" transform="translate(15.6875,42.8125)"/>
<path d="M0 0 C-9.0625 7.50892857 -9.0625 7.50892857 -15 7 C-12.86147591 4.73489661 -10.67088393 2.95220832 -8.0625 1.25 C-7.39347656 0.80140625 -6.72445312 0.3528125 -6.03515625 -0.109375 C-3.57208067 -1.18726604 -2.47819942 -0.90922753 0 0 Z " fill="#74E7FF" transform="translate(77,65)"/>
<path d="M0 0 C0.66 2.97 1.32 5.94 2 9 C-0.51083114 7.74458443 -0.87125446 6.49936512 -2 4 C-3.98 4.33 -5.96 4.66 -8 5 C-8 3.68 -8 2.36 -8 1 C-5.23735711 0.40267181 -2.83967231 0 0 0 Z " fill="#000757" transform="translate(15,89)"/>
<path d="M0 0 C2.31 0.33 4.62 0.66 7 1 C6.01 1.66 5.02 2.32 4 3 C2.70216669 6.89349993 3.1695053 10.03208086 4 14 C3.01 13.34 2.02 12.68 1 12 C0.48828125 9.1796875 0.48828125 9.1796875 0.3125 5.875 C0.24675781 4.77929688 0.18101563 3.68359375 0.11328125 2.5546875 C0.05720703 1.29011719 0.05720703 1.29011719 0 0 Z " fill="#01389A" transform="translate(12,60)"/>
<path d="M0 0 C0.33 0.66 0.66 1.32 1 2 C1.99 2 2.98 2 4 2 C4 2.66 4 3.32 4 4 C4.99 4.66 5.98 5.32 7 6 C6.38125 6.2475 5.7625 6.495 5.125 6.75 C2.64931313 8.20628639 2.04874998 9.37812506 1 12 C0.67 12 0.34 12 0 12 C0 8.04 0 4.08 0 0 Z " fill="#9FBFF1" transform="translate(2,38)"/>
<path d="M0 0 C3.63 0 7.26 0 11 0 C10.67 0.99 10.34 1.98 10 3 C6.37 3 2.74 3 -1 3 C-0.67 2.01 -0.34 1.02 0 0 Z " fill="#E8FEFF" transform="translate(75,36)"/>
<path d="M0 0 C3.63 0 7.26 0 11 0 C10.67 0.99 10.34 1.98 10 3 C6.37 3 2.74 3 -1 3 C-0.67 2.01 -0.34 1.02 0 0 Z " fill="#E8FEFF" transform="translate(51,36)"/>
<path d="M0 0 C1.125 3.75 1.125 3.75 0 6 C-1.70703125 6.9296875 -1.70703125 6.9296875 -3.8125 7.875 C-7.17118306 9.47896713 -9.54727628 11.13848899 -12 14 C-10.68578373 10.05735118 -9.21086827 7.66043371 -6 5 C-5.113125 4.649375 -4.22625 4.29875 -3.3125 3.9375 C-2.549375 3.628125 -1.78625 3.31875 -1 3 C-0.67 2.01 -0.34 1.02 0 0 Z " fill="#022E86" transform="translate(123,73)"/>
<path d="M0 0 C-0.65226562 0.24234375 -1.30453125 0.4846875 -1.9765625 0.734375 C-7.11213194 2.70376741 -11.56942895 4.7353687 -16 8 C-16.33 7.01 -16.66 6.02 -17 5 C-4.54150198 -1.51383399 -4.54150198 -1.51383399 0 0 Z " fill="#2AADFF" transform="translate(83,61)"/>
<path d="M0 0 C4.95769796 -0.29162929 8.02806853 -0.12940055 12 3 C12 3.66 12 4.32 12 5 C12.66 5.33 13.32 5.66 14 6 C8.25 5.125 8.25 5.125 6 4 C6 3.34 6 2.68 6 2 C3.03 1.505 3.03 1.505 0 1 C0 0.67 0 0.34 0 0 Z " fill="#0847AF" transform="translate(109,59)"/>
<path d="M0 0 C2.3828125 -0.29296875 2.3828125 -0.29296875 5.125 -0.1875 C6.03507812 -0.16042969 6.94515625 -0.13335937 7.8828125 -0.10546875 C8.58148438 -0.07066406 9.28015625 -0.03585938 10 0 C9.67 0.99 9.34 1.98 9 3 C5.37 3 1.74 3 -2 3 C-1.34 2.01 -0.68 1.02 0 0 Z " fill="#D4D4D4" transform="translate(55,33)"/>
<path d="M0 0 C2.97 0.33 5.94 0.66 9 1 C9 1.33 9 1.66 9 2 C7.4221875 2.37125 7.4221875 2.37125 5.8125 2.75 C2.1655856 3.76671553 -0.09162912 5.5763576 -3 8 C-3.99 8 -4.98 8 -6 8 C-6 8.66 -6 9.32 -6 10 C-6.66 10 -7.32 10 -8 10 C-6.66529737 5.99589212 -4.44000697 5.29333798 -1 3 C-0.67 2.01 -0.34 1.02 0 0 Z " fill="#0042CB" transform="translate(26,54)"/>
<path d="M0 0 C0 2.31 0 4.62 0 7 C-2.31 6.34 -4.62 5.68 -7 5 C-6.67 4.01 -6.34 3.02 -6 2 C-1.78947368 0 -1.78947368 0 0 0 Z " fill="#02174E" transform="translate(126,49)"/>
<path d="M0 0 C0.66 0 1.32 0 2 0 C3.61949011 2.57213134 4.04408751 3.67669159 3.625 6.75 C3.41875 7.4925 3.2125 8.235 3 9 C0.69 9.33 -1.62 9.66 -4 10 C-4 9.01 -4 8.02 -4 7 C-2.35 6.67 -0.7 6.34 1 6 C0.67 4.02 0.34 2.04 0 0 Z " fill="#023596" transform="translate(8,52)"/>
<path d="M0 0 C3.63 0 7.26 0 11 0 C8 3 8 3 5.73828125 3.29296875 C4.93777344 3.25816406 4.13726562 3.22335938 3.3125 3.1875 C2.10013672 3.14689453 2.10013672 3.14689453 0.86328125 3.10546875 C-0.05904297 3.05326172 -0.05904297 3.05326172 -1 3 C-0.67 2.01 -0.34 1.02 0 0 Z " fill="#E9FEFF" transform="translate(99,36)"/>
<path d="M0 0 C0 0.33 0 0.66 0 1 C-3.3 1.33 -6.6 1.66 -10 2 C-10 2.66 -10 3.32 -10 4 C-9.34 4.33 -8.68 4.66 -8 5 C-12.455 5.495 -12.455 5.495 -17 6 C-16.01 5.67 -15.02 5.34 -14 5 C-14 4.34 -14 3.68 -14 3 C-9.41201726 -0.05865516 -5.43293781 -0.12634739 0 0 Z " fill="#B6B6B6" transform="translate(92,5)"/>
<path d="M0 0 C0.66 0.33 1.32 0.66 2 1 C-0.87494471 4.98069267 -3.82117329 7.43571997 -8 10 C-7.04735876 5.80837855 -6.36739592 4.2792209 -2.875 1.625 C-1.92625 1.08875 -0.9775 0.5525 0 0 Z " fill="#0045BE" transform="translate(112,79)"/>
<path d="M0 0 C2.475 0.99 2.475 0.99 5 2 C5.25 4.25 5.25 4.25 5 7 C3 9.3125 3 9.3125 1 11 C1.01160156 10.37351562 1.02320312 9.74703125 1.03515625 9.1015625 C1.04417969 8.28429687 1.05320312 7.46703125 1.0625 6.625 C1.07990234 5.40683594 1.07990234 5.40683594 1.09765625 4.1640625 C1.14466334 1.95062858 1.14466334 1.95062858 0 0 Z " fill="#1763DB" transform="translate(113,64)"/>
<path d="M0 0 C-0.7115625 0.61875 -0.7115625 0.61875 -1.4375 1.25 C-3.16266518 3.182185 -3.56584875 4.48192275 -4 7 C-5.32 7 -6.64 7 -8 7 C-6.53511706 1.38461538 -6.53511706 1.38461538 -4 -0.4375 C-2 -1 -2 -1 0 0 Z " fill="#7A9DE7" transform="translate(11,44)"/>
<path d="M0 0 C-1.10699901 3.21029714 -2.01603825 4.00968977 -5 5.8125 C-5.99 6.204375 -6.98 6.59625 -8 7 C-8.66 6.67 -9.32 6.34 -10 6 C-8.90398831 4.99106869 -7.79786082 3.99311775 -6.6875 3 C-6.07261719 2.443125 -5.45773438 1.88625 -4.82421875 1.3125 C-3 0 -3 0 0 0 Z " fill="#001373" transform="translate(111,91)"/>
<path d="M0 0 C0.33 0.66 0.66 1.32 1 2 C-0.0725 2.37125 -1.145 2.7425 -2.25 3.125 C-6.40304256 4.86877243 -7.8458783 7.12258093 -10 11 C-10.75 9.25 -10.75 9.25 -11 7 C-8.11386998 3.03157122 -4.43691734 1.70650667 0 0 Z " fill="#0A71EE" transform="translate(113,75)"/>
<path d="M0 0 C2.64 0 5.28 0 8 0 C8.33 0.99 8.66 1.98 9 3 C6.03 3 3.06 3 0 3 C0 2.01 0 1.02 0 0 Z " fill="#C8FEFF" transform="translate(89,73)"/>
<path d="M0 0 C-0.33 1.32 -0.66 2.64 -1 4 C-2.98 4.33 -4.96 4.66 -7 5 C-7 3.68 -7 2.36 -7 1 C-4 0 -4 0 0 0 Z " fill="#4B6693" transform="translate(126,46)"/>
<path d="M0 0 C7.875 0.875 7.875 0.875 9 2 C9.04080783 3.99958364 9.04254356 6.00045254 9 8 C7.88625 6.824375 7.88625 6.824375 6.75 5.625 C4.45566682 3.43495469 2.87841142 2.17268614 0 1 C0 0.67 0 0.34 0 0 Z " fill="#0D4393" transform="translate(116,59)"/>
<path d="M0 0 C2.97 0 5.94 0 9 0 C9 0.99 9 1.98 9 3 C6.36 3 3.72 3 1 3 C0.67 2.01 0.34 1.02 0 0 Z " fill="#010C55" transform="translate(13,53)"/>
<path d="M0 0 C4.29 0 8.58 0 13 0 C10 3 10 3 7.51953125 3.07421875 C6.62621094 2.94660156 5.73289062 2.81898437 4.8125 2.6875 C3.46091797 2.50767578 3.46091797 2.50767578 2.08203125 2.32421875 C1.05142578 2.16373047 1.05142578 2.16373047 0 2 C0 1.34 0 0.68 0 0 Z " fill="#C1C1C1" transform="translate(32,30)"/>
<path d="M0 0 C2.97 0.99 5.94 1.98 9 3 C9.33 2.01 9.66 1.02 10 0 C10.33 1.32 10.66 2.64 11 4 C8.875 4.75 8.875 4.75 6 5 C2.6875 3.125 2.6875 3.125 0 1 C0 0.67 0 0.34 0 0 Z " fill="#3674DB" transform="translate(89,89)"/>
<path d="M0 0 C1.485 0.99 1.485 0.99 3 2 C3.99 2 4.98 2 6 2 C6 3.32 6 4.64 6 6 C4.35 6 2.7 6 1 6 C0.67 4.02 0.34 2.04 0 0 Z " fill="#739BE6" transform="translate(112,45)"/>
<path d="M0 0 C0.99 0 1.98 0 3 0 C3 1.32 3 2.64 3 4 C1.02 4.66 -0.96 5.32 -3 6 C-2.42655063 3.13275314 -2.1385485 2.1385485 0 0 Z " fill="#002490" transform="translate(108,87)"/>
<path d="M0 0 C0.66 0 1.32 0 2 0 C2 0.66 2 1.32 2 2 C4.31 2 6.62 2 9 2 C9.33 2.66 9.66 3.32 10 4 C8.329375 4.2165625 8.329375 4.2165625 6.625 4.4375 C3.17857953 4.78372035 3.17857953 4.78372035 1 6 C0.67 4.02 0.34 2.04 0 0 Z " fill="#00184F" transform="translate(4,75)"/>
<path d="M0 0 C4.75 0.875 4.75 0.875 7 2 C7 2.99 7 3.98 7 5 C5.35 5 3.7 5 2 5 C1.34 3.35 0.68 1.7 0 0 Z " fill="#002C96" transform="translate(57,75)"/>
<path d="M0 0 C3.9492568 0.55105909 7.34920174 1.38935371 11 3 C10.67 3.66 10.34 4.32 10 5 C7.36 4.34 4.72 3.68 2 3 C2 2.34 2 1.68 2 1 C1.34 0.67 0.68 0.34 0 0 Z " fill="#013484" transform="translate(114,56)"/>
<path d="M0 0 C1.32 0.33 2.64 0.66 4 1 C3.67 1.66 3.34 2.32 3 3 C6.3 3 9.6 3 13 3 C13 3.33 13 3.66 13 4 C8.71 4 4.42 4 0 4 C0 2.68 0 1.36 0 0 Z " fill="#CCECFF" transform="translate(71,36)"/>
<path d="M0 0 C1.32 0.33 2.64 0.66 4 1 C3.67 1.66 3.34 2.32 3 3 C6.3 3 9.6 3 13 3 C13 3.33 13 3.66 13 4 C8.71 4 4.42 4 0 4 C0 2.68 0 1.36 0 0 Z " fill="#CDECFF" transform="translate(47,36)"/>
<path d="M0 0 C1.32 0.33 2.64 0.66 4 1 C3.67 1.66 3.34 2.32 3 3 C6.3 3 9.6 3 13 3 C13 3.33 13 3.66 13 4 C8.71 4 4.42 4 0 4 C0 2.68 0 1.36 0 0 Z " fill="#CDECFF" transform="translate(23,36)"/>
<path d="M0 0 C3.3 0 6.6 0 10 0 C8.515 1.485 8.515 1.485 7 3 C3.3125 2.6875 3.3125 2.6875 0 2 C0 1.34 0 0.68 0 0 Z " fill="#4389F1" transform="translate(99,52)"/>
<path d="M0 0 C1.17949219 0.19464844 2.35898438 0.38929687 3.57421875 0.58984375 C4.92966797 0.82380859 4.92966797 0.82380859 6.3125 1.0625 C6.3125 1.3925 6.3125 1.7225 6.3125 2.0625 C4.20861431 2.11652274 2.10433286 2.15530256 0 2.1875 C-1.75763672 2.22230469 -1.75763672 2.22230469 -3.55078125 2.2578125 C-6.6875 2.0625 -6.6875 2.0625 -9.6875 0.0625 C-6.00942463 -1.16352512 -3.80506073 -0.64045577 0 0 Z " fill="#0026B9" transform="translate(84.6875,95.9375)"/>
<path d="M0 0 C2.97 0 5.94 0 9 0 C9 0.99 9 1.98 9 3 C2.84765625 2.4140625 2.84765625 2.4140625 1 2 C0.67 1.34 0.34 0.68 0 0 Z " fill="#000232" transform="translate(5,81)"/>
<path d="M0 0 C3.3 0 6.6 0 10 0 C10 0.99 10 1.98 10 3 C8.5199159 2.88637738 7.04089926 2.75877092 5.5625 2.625 C4.73878906 2.55539063 3.91507813 2.48578125 3.06640625 2.4140625 C2.38449219 2.27742188 1.70257813 2.14078125 1 2 C0.67 1.34 0.34 0.68 0 0 Z " fill="#1B3E75" transform="translate(14,51)"/>
<path d="M0 0 C3.63 0.33 7.26 0.66 11 1 C10.01 2.485 10.01 2.485 9 4 C7.68 4 6.36 4 5 4 C4.67 3.34 4.34 2.68 4 2 C2.68 1.34 1.36 0.68 0 0 Z " fill="#9DBBF4" transform="translate(108,40)"/>
<path d="M0 0 C0.66 0.33 1.32 0.66 2 1 C1.01 2.98 0.02 4.96 -1 7 C-3.97 6.505 -3.97 6.505 -7 6 C-7 5.67 -7 5.34 -7 5 C-5.35 5 -3.7 5 -2 5 C-1.34 3.35 -0.68 1.7 0 0 Z " fill="#000060" transform="translate(100,98)"/>
<path d="M0 0 C0 1.98 0 3.96 0 6 C-3.465 4.02 -3.465 4.02 -7 2 C-7 1.67 -7 1.34 -7 1 C-1.125 0 -1.125 0 0 0 Z " fill="#2F2F2F" transform="translate(117,6)"/>
<path d="M0 0 C0.99 0 1.98 0 3 0 C3 2.31 3 4.62 3 7 C2.01 6.67 1.02 6.34 0 6 C0.33 4.68 0.66 3.36 1 2 C0.34 1.67 -0.32 1.34 -1 1 C-0.67 0.67 -0.34 0.34 0 0 Z " fill="#1076FD" transform="translate(69,71)"/>
<path d="M0 0 C0.99 0 1.98 0 3 0 C3.33 1.98 3.66 3.96 4 6 C3.67 5.34 3.34 4.68 3 4 C1.68 4.33 0.36 4.66 -1 5 C-0.67 3.35 -0.34 1.7 0 0 Z " fill="#184EA0" transform="translate(121,65)"/>
<path d="M0 0 C1.32 0.33 2.64 0.66 4 1 C3.42655063 3.86724686 3.1385485 4.8614515 1 7 C0.67 4.69 0.34 2.38 0 0 Z " fill="#001B75" transform="translate(16,78)"/>
<path d="M0 0 C0.99 0.33 1.98 0.66 3 1 C1.8125 2.5 1.8125 2.5 0 4 C-2.6875 4.1875 -2.6875 4.1875 -5 4 C-3.36587557 2.29159719 -2.13093906 1.06546953 0 0 Z " fill="#6AD7FF" transform="translate(67,68)"/>
<path d="M0 0 C1.32 0 2.64 0 4 0 C4 0.66 4 1.32 4 2 C4.99 2.33 5.98 2.66 7 3 C4.36 3 1.72 3 -1 3 C-0.67 2.01 -0.34 1.02 0 0 Z " fill="#003CC4" transform="translate(101,56)"/>
<path d="M0 0 C2.64 0 5.28 0 8 0 C8 0.99 8 1.98 8 3 C2.25 2.25 2.25 2.25 0 0 Z " fill="#032B69" transform="translate(118,56)"/>
<path d="M0 0 C0.33 0.99 0.66 1.98 1 3 C0 4 0 4 -2.5625 4.0625 C-3.7690625 4.0315625 -3.7690625 4.0315625 -5 4 C-5 3.01 -5 2.02 -5 1 C-3.35 0.67 -1.7 0.34 0 0 Z " fill="#7B91B2" transform="translate(125,41)"/>
<path d="M0 0 C2.64 0 5.28 0 8 0 C5.03312999 1.64826111 2.34373475 2.44271087 -1 3 C-0.67 2.01 -0.34 1.02 0 0 Z " fill="#D0ECFF" transform="translate(116,36)"/>
</svg>
